<mxfile host="app.diagrams.net" modified="2023-05-30T04:24:03.540Z" agent="Mozilla/5.0 (Windows NT 10.0; Win64; x64) AppleWebKit/537.36 (KHTML, like Gecko) Chrome/113.0.0.0 Safari/537.36" etag="AEgRkyLNzD038S87O4ro" version="21.3.5" type="github">
  <diagram name="Page-1" id="EVZfcv6N2X14CKi07SOx">
    <mxGraphModel dx="1760" dy="1352" grid="1" gridSize="10" guides="1" tooltips="1" connect="1" arrows="1" fold="1" page="0" pageScale="1" pageWidth="3300" pageHeight="4681" background="#FFFFFF" math="0" shadow="0">
      <root>
        <mxCell id="0" />
        <mxCell id="1" parent="0" />
        <mxCell id="ckZQzvzNnewIk4Tqqs-Q-137" value="" style="edgeStyle=orthogonalEdgeStyle;rounded=0;orthogonalLoop=1;jettySize=auto;html=1;" parent="1" source="ckZQzvzNnewIk4Tqqs-Q-33" target="ckZQzvzNnewIk4Tqqs-Q-136" edge="1">
          <mxGeometry relative="1" as="geometry" />
        </mxCell>
        <mxCell id="ckZQzvzNnewIk4Tqqs-Q-33" value="START" style="strokeWidth=2;html=1;shape=mxgraph.flowchart.terminator;whiteSpace=wrap;" parent="1" vertex="1">
          <mxGeometry x="966.25" y="-280" width="100" height="50" as="geometry" />
        </mxCell>
        <mxCell id="ckZQzvzNnewIk4Tqqs-Q-44" value="" style="edgeStyle=orthogonalEdgeStyle;rounded=0;orthogonalLoop=1;jettySize=auto;html=1;" parent="1" source="ckZQzvzNnewIk4Tqqs-Q-35" target="ckZQzvzNnewIk4Tqqs-Q-43" edge="1">
          <mxGeometry relative="1" as="geometry" />
        </mxCell>
        <mxCell id="ckZQzvzNnewIk4Tqqs-Q-35" value="Display Login Type form" style="shape=parallelogram;html=1;strokeWidth=2;perimeter=parallelogramPerimeter;whiteSpace=wrap;rounded=1;arcSize=12;size=0.23;" parent="1" vertex="1">
          <mxGeometry x="331.88" y="130" width="206.25" height="30" as="geometry" />
        </mxCell>
        <mxCell id="ckZQzvzNnewIk4Tqqs-Q-46" value="" style="edgeStyle=orthogonalEdgeStyle;rounded=0;orthogonalLoop=1;jettySize=auto;html=1;" parent="1" source="ckZQzvzNnewIk4Tqqs-Q-43" target="ckZQzvzNnewIk4Tqqs-Q-45" edge="1">
          <mxGeometry relative="1" as="geometry" />
        </mxCell>
        <mxCell id="ckZQzvzNnewIk4Tqqs-Q-43" value="Choose Login type" style="shape=parallelogram;perimeter=parallelogramPerimeter;whiteSpace=wrap;html=1;fixedSize=1;strokeWidth=2;rounded=1;arcSize=12;" parent="1" vertex="1">
          <mxGeometry x="362.5" y="210" width="145" height="40" as="geometry" />
        </mxCell>
        <mxCell id="ckZQzvzNnewIk4Tqqs-Q-58" value="" style="edgeStyle=orthogonalEdgeStyle;rounded=0;orthogonalLoop=1;jettySize=auto;html=1;" parent="1" source="ckZQzvzNnewIk4Tqqs-Q-45" target="ckZQzvzNnewIk4Tqqs-Q-57" edge="1">
          <mxGeometry relative="1" as="geometry" />
        </mxCell>
        <mxCell id="ckZQzvzNnewIk4Tqqs-Q-102" value="" style="edgeStyle=orthogonalEdgeStyle;rounded=0;orthogonalLoop=1;jettySize=auto;html=1;" parent="1" source="ckZQzvzNnewIk4Tqqs-Q-45" target="ckZQzvzNnewIk4Tqqs-Q-101" edge="1">
          <mxGeometry relative="1" as="geometry" />
        </mxCell>
        <mxCell id="ckZQzvzNnewIk4Tqqs-Q-45" value="Login as?" style="rhombus;whiteSpace=wrap;html=1;strokeWidth=2;rounded=1;arcSize=12;" parent="1" vertex="1">
          <mxGeometry x="370" y="300" width="130" height="80" as="geometry" />
        </mxCell>
        <mxCell id="ckZQzvzNnewIk4Tqqs-Q-52" value="Admin" style="text;strokeColor=none;align=center;fillColor=none;html=1;verticalAlign=middle;whiteSpace=wrap;rounded=0;" parent="1" vertex="1">
          <mxGeometry x="500" y="310" width="60" height="30" as="geometry" />
        </mxCell>
        <mxCell id="ckZQzvzNnewIk4Tqqs-Q-56" value="Staff" style="text;strokeColor=none;align=center;fillColor=none;html=1;verticalAlign=middle;whiteSpace=wrap;rounded=0;" parent="1" vertex="1">
          <mxGeometry x="310" y="310" width="60" height="30" as="geometry" />
        </mxCell>
        <mxCell id="ckZQzvzNnewIk4Tqqs-Q-60" value="" style="edgeStyle=orthogonalEdgeStyle;rounded=0;orthogonalLoop=1;jettySize=auto;html=1;" parent="1" source="ckZQzvzNnewIk4Tqqs-Q-57" target="ckZQzvzNnewIk4Tqqs-Q-59" edge="1">
          <mxGeometry relative="1" as="geometry" />
        </mxCell>
        <mxCell id="ckZQzvzNnewIk4Tqqs-Q-57" value="Enter Verfication Code" style="shape=parallelogram;perimeter=parallelogramPerimeter;whiteSpace=wrap;html=1;fixedSize=1;strokeWidth=2;rounded=1;arcSize=12;" parent="1" vertex="1">
          <mxGeometry x="755" y="390" width="160" height="30" as="geometry" />
        </mxCell>
        <mxCell id="ckZQzvzNnewIk4Tqqs-Q-62" style="edgeStyle=orthogonalEdgeStyle;rounded=0;orthogonalLoop=1;jettySize=auto;html=1;endArrow=none;endFill=0;" parent="1" source="ckZQzvzNnewIk4Tqqs-Q-59" edge="1">
          <mxGeometry relative="1" as="geometry">
            <mxPoint x="835" y="360" as="targetPoint" />
            <Array as="points">
              <mxPoint x="975" y="500" />
              <mxPoint x="975" y="360" />
              <mxPoint x="845" y="360" />
            </Array>
          </mxGeometry>
        </mxCell>
        <mxCell id="ckZQzvzNnewIk4Tqqs-Q-65" value="" style="edgeStyle=orthogonalEdgeStyle;rounded=0;orthogonalLoop=1;jettySize=auto;html=1;" parent="1" source="ckZQzvzNnewIk4Tqqs-Q-59" target="ckZQzvzNnewIk4Tqqs-Q-64" edge="1">
          <mxGeometry relative="1" as="geometry" />
        </mxCell>
        <mxCell id="ckZQzvzNnewIk4Tqqs-Q-59" value="Valid Code?" style="rhombus;whiteSpace=wrap;html=1;strokeWidth=2;rounded=1;arcSize=12;" parent="1" vertex="1">
          <mxGeometry x="780" y="460" width="110" height="80" as="geometry" />
        </mxCell>
        <mxCell id="ckZQzvzNnewIk4Tqqs-Q-63" value="False" style="text;strokeColor=none;align=center;fillColor=none;html=1;verticalAlign=middle;whiteSpace=wrap;rounded=0;" parent="1" vertex="1">
          <mxGeometry x="890" y="470" width="60" height="30" as="geometry" />
        </mxCell>
        <mxCell id="ckZQzvzNnewIk4Tqqs-Q-68" value="" style="edgeStyle=orthogonalEdgeStyle;rounded=0;orthogonalLoop=1;jettySize=auto;html=1;" parent="1" source="ckZQzvzNnewIk4Tqqs-Q-64" target="ckZQzvzNnewIk4Tqqs-Q-67" edge="1">
          <mxGeometry relative="1" as="geometry" />
        </mxCell>
        <mxCell id="ckZQzvzNnewIk4Tqqs-Q-64" value="Display Admin Login Form" style="shape=parallelogram;perimeter=parallelogramPerimeter;whiteSpace=wrap;html=1;fixedSize=1;strokeWidth=2;rounded=1;arcSize=12;" parent="1" vertex="1">
          <mxGeometry x="750" y="580" width="170" height="40" as="geometry" />
        </mxCell>
        <mxCell id="ckZQzvzNnewIk4Tqqs-Q-71" value="" style="edgeStyle=orthogonalEdgeStyle;rounded=0;orthogonalLoop=1;jettySize=auto;html=1;" parent="1" source="ckZQzvzNnewIk4Tqqs-Q-67" target="ckZQzvzNnewIk4Tqqs-Q-70" edge="1">
          <mxGeometry relative="1" as="geometry" />
        </mxCell>
        <mxCell id="ckZQzvzNnewIk4Tqqs-Q-67" value="Enter Username" style="shape=parallelogram;perimeter=parallelogramPerimeter;whiteSpace=wrap;html=1;fixedSize=1;strokeWidth=2;rounded=1;arcSize=12;" parent="1" vertex="1">
          <mxGeometry x="750" y="660" width="170" height="30" as="geometry" />
        </mxCell>
        <mxCell id="ckZQzvzNnewIk4Tqqs-Q-79" value="" style="edgeStyle=orthogonalEdgeStyle;rounded=0;orthogonalLoop=1;jettySize=auto;html=1;" parent="1" source="ckZQzvzNnewIk4Tqqs-Q-70" target="ckZQzvzNnewIk4Tqqs-Q-78" edge="1">
          <mxGeometry relative="1" as="geometry" />
        </mxCell>
        <mxCell id="ckZQzvzNnewIk4Tqqs-Q-70" value="Enter Password" style="shape=parallelogram;perimeter=parallelogramPerimeter;whiteSpace=wrap;html=1;fixedSize=1;strokeWidth=2;rounded=1;arcSize=12;" parent="1" vertex="1">
          <mxGeometry x="750" y="730" width="170" height="30" as="geometry" />
        </mxCell>
        <mxCell id="ckZQzvzNnewIk4Tqqs-Q-81" value="" style="edgeStyle=orthogonalEdgeStyle;rounded=0;orthogonalLoop=1;jettySize=auto;html=1;" parent="1" source="ckZQzvzNnewIk4Tqqs-Q-78" target="ckZQzvzNnewIk4Tqqs-Q-80" edge="1">
          <mxGeometry relative="1" as="geometry" />
        </mxCell>
        <mxCell id="ckZQzvzNnewIk4Tqqs-Q-78" value="LOGIN" style="rounded=1;whiteSpace=wrap;html=1;strokeWidth=2;arcSize=12;" parent="1" vertex="1">
          <mxGeometry x="797.5" y="810" width="75" height="25" as="geometry" />
        </mxCell>
        <mxCell id="ckZQzvzNnewIk4Tqqs-Q-83" value="" style="edgeStyle=orthogonalEdgeStyle;rounded=0;orthogonalLoop=1;jettySize=auto;html=1;" parent="1" source="ckZQzvzNnewIk4Tqqs-Q-80" target="ckZQzvzNnewIk4Tqqs-Q-82" edge="1">
          <mxGeometry relative="1" as="geometry" />
        </mxCell>
        <mxCell id="ckZQzvzNnewIk4Tqqs-Q-87" value="" style="edgeStyle=orthogonalEdgeStyle;rounded=0;orthogonalLoop=1;jettySize=auto;html=1;" parent="1" source="ckZQzvzNnewIk4Tqqs-Q-80" target="ckZQzvzNnewIk4Tqqs-Q-86" edge="1">
          <mxGeometry relative="1" as="geometry" />
        </mxCell>
        <mxCell id="ckZQzvzNnewIk4Tqqs-Q-80" value="Valid Credentials?" style="rhombus;whiteSpace=wrap;html=1;rounded=1;strokeWidth=2;arcSize=12;" parent="1" vertex="1">
          <mxGeometry x="757.5" y="887.5" width="155" height="80" as="geometry" />
        </mxCell>
        <mxCell id="ckZQzvzNnewIk4Tqqs-Q-84" style="edgeStyle=orthogonalEdgeStyle;rounded=0;orthogonalLoop=1;jettySize=auto;html=1;exitX=0.5;exitY=0;exitDx=0;exitDy=0;endArrow=none;endFill=0;" parent="1" edge="1">
          <mxGeometry relative="1" as="geometry">
            <mxPoint x="835" y="640" as="targetPoint" />
            <mxPoint x="1055" y="775.0000000000002" as="sourcePoint" />
            <Array as="points">
              <mxPoint x="1055" y="640" />
              <mxPoint x="935" y="640" />
            </Array>
          </mxGeometry>
        </mxCell>
        <mxCell id="ckZQzvzNnewIk4Tqqs-Q-82" value="CLEAR Username And Password Entered" style="whiteSpace=wrap;html=1;rounded=1;strokeWidth=2;arcSize=12;" parent="1" vertex="1">
          <mxGeometry x="990" y="775" width="120" height="60" as="geometry" />
        </mxCell>
        <mxCell id="ckZQzvzNnewIk4Tqqs-Q-85" value="False" style="text;strokeColor=none;align=center;fillColor=none;html=1;verticalAlign=middle;whiteSpace=wrap;rounded=0;" parent="1" vertex="1">
          <mxGeometry x="912.5" y="900" width="60" height="30" as="geometry" />
        </mxCell>
        <mxCell id="ckZQzvzNnewIk4Tqqs-Q-89" value="" style="edgeStyle=orthogonalEdgeStyle;rounded=0;orthogonalLoop=1;jettySize=auto;html=1;" parent="1" source="ckZQzvzNnewIk4Tqqs-Q-86" target="ckZQzvzNnewIk4Tqqs-Q-88" edge="1">
          <mxGeometry relative="1" as="geometry" />
        </mxCell>
        <mxCell id="ckZQzvzNnewIk4Tqqs-Q-86" value="Login Success!" style="shape=parallelogram;perimeter=parallelogramPerimeter;whiteSpace=wrap;html=1;fixedSize=1;rounded=1;strokeWidth=2;arcSize=12;" parent="1" vertex="1">
          <mxGeometry x="775" y="1020" width="120" height="32.5" as="geometry" />
        </mxCell>
        <mxCell id="ckZQzvzNnewIk4Tqqs-Q-91" style="edgeStyle=orthogonalEdgeStyle;rounded=0;orthogonalLoop=1;jettySize=auto;html=1;exitX=0.5;exitY=1;exitDx=0;exitDy=0;entryX=0.5;entryY=0;entryDx=0;entryDy=0;entryPerimeter=0;" parent="1" source="ckZQzvzNnewIk4Tqqs-Q-88" target="ckZQzvzNnewIk4Tqqs-Q-90" edge="1">
          <mxGeometry relative="1" as="geometry" />
        </mxCell>
        <mxCell id="ckZQzvzNnewIk4Tqqs-Q-88" value="Admin Dashboard" style="whiteSpace=wrap;html=1;rounded=1;strokeWidth=2;arcSize=12;" parent="1" vertex="1">
          <mxGeometry x="775" y="1118.75" width="120" height="31.25" as="geometry" />
        </mxCell>
        <mxCell id="ckZQzvzNnewIk4Tqqs-Q-90" value="END" style="strokeWidth=2;html=1;shape=mxgraph.flowchart.terminator;whiteSpace=wrap;" parent="1" vertex="1">
          <mxGeometry x="1059.99" y="1330" width="100" height="60" as="geometry" />
        </mxCell>
        <mxCell id="ckZQzvzNnewIk4Tqqs-Q-93" value="True" style="text;strokeColor=none;align=center;fillColor=none;html=1;verticalAlign=middle;whiteSpace=wrap;rounded=0;" parent="1" vertex="1">
          <mxGeometry x="775" y="967.5" width="60" height="30" as="geometry" />
        </mxCell>
        <mxCell id="ckZQzvzNnewIk4Tqqs-Q-94" value="True" style="text;strokeColor=none;align=center;fillColor=none;html=1;verticalAlign=middle;whiteSpace=wrap;rounded=0;" parent="1" vertex="1">
          <mxGeometry x="775" y="540" width="60" height="30" as="geometry" />
        </mxCell>
        <mxCell id="ckZQzvzNnewIk4Tqqs-Q-104" value="" style="edgeStyle=orthogonalEdgeStyle;rounded=0;orthogonalLoop=1;jettySize=auto;html=1;" parent="1" source="ckZQzvzNnewIk4Tqqs-Q-101" target="ckZQzvzNnewIk4Tqqs-Q-103" edge="1">
          <mxGeometry relative="1" as="geometry" />
        </mxCell>
        <mxCell id="ckZQzvzNnewIk4Tqqs-Q-101" value="Enter Verification code" style="shape=parallelogram;perimeter=parallelogramPerimeter;whiteSpace=wrap;html=1;fixedSize=1;strokeWidth=2;rounded=1;arcSize=12;" parent="1" vertex="1">
          <mxGeometry x="20" y="400" width="165" height="30" as="geometry" />
        </mxCell>
        <mxCell id="ckZQzvzNnewIk4Tqqs-Q-105" style="edgeStyle=orthogonalEdgeStyle;rounded=0;orthogonalLoop=1;jettySize=auto;html=1;exitX=1;exitY=0.5;exitDx=0;exitDy=0;endArrow=none;endFill=0;" parent="1" source="ckZQzvzNnewIk4Tqqs-Q-103" edge="1">
          <mxGeometry relative="1" as="geometry">
            <mxPoint x="103" y="370" as="targetPoint" />
            <Array as="points">
              <mxPoint x="241" y="510" />
              <mxPoint x="241" y="370" />
            </Array>
          </mxGeometry>
        </mxCell>
        <mxCell id="ckZQzvzNnewIk4Tqqs-Q-109" style="edgeStyle=orthogonalEdgeStyle;rounded=0;orthogonalLoop=1;jettySize=auto;html=1;exitX=0.5;exitY=1;exitDx=0;exitDy=0;entryX=0.5;entryY=0;entryDx=0;entryDy=0;" parent="1" source="ckZQzvzNnewIk4Tqqs-Q-103" target="ckZQzvzNnewIk4Tqqs-Q-107" edge="1">
          <mxGeometry relative="1" as="geometry" />
        </mxCell>
        <mxCell id="ckZQzvzNnewIk4Tqqs-Q-103" value="Valid Code?" style="rhombus;whiteSpace=wrap;html=1;strokeWidth=2;rounded=1;arcSize=12;" parent="1" vertex="1">
          <mxGeometry x="51.879999999999995" y="470" width="101.25" height="80" as="geometry" />
        </mxCell>
        <mxCell id="ckZQzvzNnewIk4Tqqs-Q-106" value="False" style="text;strokeColor=none;align=center;fillColor=none;html=1;verticalAlign=middle;whiteSpace=wrap;rounded=0;" parent="1" vertex="1">
          <mxGeometry x="150" y="480" width="60" height="30" as="geometry" />
        </mxCell>
        <mxCell id="ckZQzvzNnewIk4Tqqs-Q-119" value="" style="edgeStyle=orthogonalEdgeStyle;rounded=0;orthogonalLoop=1;jettySize=auto;html=1;" parent="1" source="ckZQzvzNnewIk4Tqqs-Q-107" target="ckZQzvzNnewIk4Tqqs-Q-118" edge="1">
          <mxGeometry relative="1" as="geometry" />
        </mxCell>
        <mxCell id="ckZQzvzNnewIk4Tqqs-Q-107" value="Display Staff Login Form" style="shape=parallelogram;perimeter=parallelogramPerimeter;whiteSpace=wrap;html=1;fixedSize=1;strokeWidth=2;rounded=1;arcSize=12;" parent="1" vertex="1">
          <mxGeometry x="17.499999999999996" y="580" width="170" height="40" as="geometry" />
        </mxCell>
        <mxCell id="ckZQzvzNnewIk4Tqqs-Q-110" value="True" style="text;strokeColor=none;align=center;fillColor=none;html=1;verticalAlign=middle;whiteSpace=wrap;rounded=0;" parent="1" vertex="1">
          <mxGeometry x="40" y="540" width="60" height="30" as="geometry" />
        </mxCell>
        <mxCell id="ckZQzvzNnewIk4Tqqs-Q-121" value="" style="edgeStyle=orthogonalEdgeStyle;rounded=0;orthogonalLoop=1;jettySize=auto;html=1;" parent="1" source="ckZQzvzNnewIk4Tqqs-Q-118" target="ckZQzvzNnewIk4Tqqs-Q-120" edge="1">
          <mxGeometry relative="1" as="geometry" />
        </mxCell>
        <mxCell id="ckZQzvzNnewIk4Tqqs-Q-118" value="Enter Username" style="shape=parallelogram;perimeter=parallelogramPerimeter;whiteSpace=wrap;html=1;fixedSize=1;strokeWidth=2;rounded=1;arcSize=12;" parent="1" vertex="1">
          <mxGeometry x="17.5" y="660" width="170" height="30" as="geometry" />
        </mxCell>
        <mxCell id="ckZQzvzNnewIk4Tqqs-Q-123" value="" style="edgeStyle=orthogonalEdgeStyle;rounded=0;orthogonalLoop=1;jettySize=auto;html=1;" parent="1" source="ckZQzvzNnewIk4Tqqs-Q-120" target="ckZQzvzNnewIk4Tqqs-Q-122" edge="1">
          <mxGeometry relative="1" as="geometry" />
        </mxCell>
        <mxCell id="ckZQzvzNnewIk4Tqqs-Q-120" value="Enter Password" style="shape=parallelogram;perimeter=parallelogramPerimeter;whiteSpace=wrap;html=1;fixedSize=1;strokeWidth=2;rounded=1;arcSize=12;" parent="1" vertex="1">
          <mxGeometry x="17.509999999999998" y="730" width="170" height="30" as="geometry" />
        </mxCell>
        <mxCell id="ckZQzvzNnewIk4Tqqs-Q-125" value="" style="edgeStyle=orthogonalEdgeStyle;rounded=0;orthogonalLoop=1;jettySize=auto;html=1;" parent="1" source="ckZQzvzNnewIk4Tqqs-Q-122" target="ckZQzvzNnewIk4Tqqs-Q-124" edge="1">
          <mxGeometry relative="1" as="geometry" />
        </mxCell>
        <mxCell id="ckZQzvzNnewIk4Tqqs-Q-122" value="LOGIN" style="rounded=1;whiteSpace=wrap;html=1;strokeWidth=2;arcSize=12;" parent="1" vertex="1">
          <mxGeometry x="66.24000000000001" y="810" width="72.51" height="25" as="geometry" />
        </mxCell>
        <mxCell id="ckZQzvzNnewIk4Tqqs-Q-127" value="" style="edgeStyle=orthogonalEdgeStyle;rounded=0;orthogonalLoop=1;jettySize=auto;html=1;" parent="1" source="ckZQzvzNnewIk4Tqqs-Q-124" target="ckZQzvzNnewIk4Tqqs-Q-126" edge="1">
          <mxGeometry relative="1" as="geometry" />
        </mxCell>
        <mxCell id="ckZQzvzNnewIk4Tqqs-Q-132" value="" style="edgeStyle=orthogonalEdgeStyle;rounded=0;orthogonalLoop=1;jettySize=auto;html=1;" parent="1" source="ckZQzvzNnewIk4Tqqs-Q-124" target="ckZQzvzNnewIk4Tqqs-Q-131" edge="1">
          <mxGeometry relative="1" as="geometry" />
        </mxCell>
        <mxCell id="ckZQzvzNnewIk4Tqqs-Q-124" value="Valid Credentials?" style="rhombus;whiteSpace=wrap;html=1;rounded=1;strokeWidth=2;arcSize=12;" parent="1" vertex="1">
          <mxGeometry x="33.739999999999995" y="887.5" width="137.51" height="80" as="geometry" />
        </mxCell>
        <mxCell id="ckZQzvzNnewIk4Tqqs-Q-129" style="edgeStyle=orthogonalEdgeStyle;rounded=0;orthogonalLoop=1;jettySize=auto;html=1;exitX=0.5;exitY=0;exitDx=0;exitDy=0;endArrow=none;endFill=0;" parent="1" source="ckZQzvzNnewIk4Tqqs-Q-126" edge="1">
          <mxGeometry relative="1" as="geometry">
            <mxPoint x="100" y="640" as="targetPoint" />
            <Array as="points">
              <mxPoint x="303" y="640" />
            </Array>
          </mxGeometry>
        </mxCell>
        <mxCell id="ckZQzvzNnewIk4Tqqs-Q-126" value="CLEAR Username And Password Entered" style="whiteSpace=wrap;html=1;rounded=1;strokeWidth=2;arcSize=12;" parent="1" vertex="1">
          <mxGeometry x="242.495" y="775" width="120" height="60" as="geometry" />
        </mxCell>
        <mxCell id="ckZQzvzNnewIk4Tqqs-Q-130" value="False" style="text;strokeColor=none;align=center;fillColor=none;html=1;verticalAlign=middle;whiteSpace=wrap;rounded=0;" parent="1" vertex="1">
          <mxGeometry x="171.25" y="900" width="60" height="30" as="geometry" />
        </mxCell>
        <mxCell id="ckZQzvzNnewIk4Tqqs-Q-134" value="" style="edgeStyle=orthogonalEdgeStyle;rounded=0;orthogonalLoop=1;jettySize=auto;html=1;" parent="1" source="ckZQzvzNnewIk4Tqqs-Q-131" target="ckZQzvzNnewIk4Tqqs-Q-133" edge="1">
          <mxGeometry relative="1" as="geometry" />
        </mxCell>
        <mxCell id="ckZQzvzNnewIk4Tqqs-Q-131" value="Login Success!" style="shape=parallelogram;perimeter=parallelogramPerimeter;whiteSpace=wrap;html=1;fixedSize=1;rounded=1;strokeWidth=2;arcSize=12;" parent="1" vertex="1">
          <mxGeometry x="42.49" y="1020" width="120" height="32.5" as="geometry" />
        </mxCell>
        <mxCell id="ckZQzvzNnewIk4Tqqs-Q-234" style="edgeStyle=orthogonalEdgeStyle;rounded=0;orthogonalLoop=1;jettySize=auto;html=1;exitX=0.5;exitY=1;exitDx=0;exitDy=0;" parent="1" source="ckZQzvzNnewIk4Tqqs-Q-133" target="ckZQzvzNnewIk4Tqqs-Q-90" edge="1">
          <mxGeometry relative="1" as="geometry" />
        </mxCell>
        <mxCell id="ckZQzvzNnewIk4Tqqs-Q-133" value="Staff Dashboard" style="whiteSpace=wrap;html=1;rounded=1;strokeWidth=2;arcSize=12;" parent="1" vertex="1">
          <mxGeometry x="42.49" y="1118.75" width="120" height="30" as="geometry" />
        </mxCell>
        <mxCell id="ckZQzvzNnewIk4Tqqs-Q-141" value="" style="edgeStyle=orthogonalEdgeStyle;rounded=0;orthogonalLoop=1;jettySize=auto;html=1;" parent="1" source="ckZQzvzNnewIk4Tqqs-Q-136" target="ckZQzvzNnewIk4Tqqs-Q-140" edge="1">
          <mxGeometry relative="1" as="geometry" />
        </mxCell>
        <mxCell id="ckZQzvzNnewIk4Tqqs-Q-136" value="Dsiplay Login and Register Type Form" style="shape=parallelogram;perimeter=parallelogramPerimeter;whiteSpace=wrap;html=1;fixedSize=1;strokeWidth=2;" parent="1" vertex="1">
          <mxGeometry x="890" y="-160" width="252.5" height="35" as="geometry" />
        </mxCell>
        <mxCell id="ckZQzvzNnewIk4Tqqs-Q-143" value="" style="edgeStyle=orthogonalEdgeStyle;rounded=0;orthogonalLoop=1;jettySize=auto;html=1;" parent="1" source="ckZQzvzNnewIk4Tqqs-Q-140" target="ckZQzvzNnewIk4Tqqs-Q-142" edge="1">
          <mxGeometry relative="1" as="geometry" />
        </mxCell>
        <mxCell id="ckZQzvzNnewIk4Tqqs-Q-140" value="Chosee if Login or Register" style="shape=parallelogram;perimeter=parallelogramPerimeter;whiteSpace=wrap;html=1;fixedSize=1;strokeWidth=2;" parent="1" vertex="1">
          <mxGeometry x="890" y="-70" width="252.5" height="35" as="geometry" />
        </mxCell>
        <mxCell id="ckZQzvzNnewIk4Tqqs-Q-238" style="edgeStyle=orthogonalEdgeStyle;rounded=0;orthogonalLoop=1;jettySize=auto;html=1;exitX=0;exitY=0.5;exitDx=0;exitDy=0;entryX=0.5;entryY=0;entryDx=0;entryDy=0;" parent="1" source="ckZQzvzNnewIk4Tqqs-Q-142" target="ckZQzvzNnewIk4Tqqs-Q-35" edge="1">
          <mxGeometry relative="1" as="geometry" />
        </mxCell>
        <mxCell id="ckZQzvzNnewIk4Tqqs-Q-239" style="edgeStyle=orthogonalEdgeStyle;rounded=0;orthogonalLoop=1;jettySize=auto;html=1;exitX=1;exitY=0.5;exitDx=0;exitDy=0;entryX=0.5;entryY=0;entryDx=0;entryDy=0;" parent="1" source="ckZQzvzNnewIk4Tqqs-Q-142" target="ckZQzvzNnewIk4Tqqs-Q-146" edge="1">
          <mxGeometry relative="1" as="geometry" />
        </mxCell>
        <mxCell id="ckZQzvzNnewIk4Tqqs-Q-142" value="Continue to?" style="rhombus;whiteSpace=wrap;html=1;strokeWidth=2;" parent="1" vertex="1">
          <mxGeometry x="967.5" y="10" width="97.5" height="80" as="geometry" />
        </mxCell>
        <mxCell id="ckZQzvzNnewIk4Tqqs-Q-145" value="" style="edgeStyle=orthogonalEdgeStyle;rounded=0;orthogonalLoop=1;jettySize=auto;html=1;" parent="1" source="ckZQzvzNnewIk4Tqqs-Q-146" target="ckZQzvzNnewIk4Tqqs-Q-148" edge="1">
          <mxGeometry relative="1" as="geometry" />
        </mxCell>
        <mxCell id="ckZQzvzNnewIk4Tqqs-Q-146" value="Display Register Type form" style="shape=parallelogram;html=1;strokeWidth=2;perimeter=parallelogramPerimeter;whiteSpace=wrap;rounded=1;arcSize=12;size=0.23;" parent="1" vertex="1">
          <mxGeometry x="1504.38" y="130" width="206.25" height="30" as="geometry" />
        </mxCell>
        <mxCell id="ckZQzvzNnewIk4Tqqs-Q-147" value="" style="edgeStyle=orthogonalEdgeStyle;rounded=0;orthogonalLoop=1;jettySize=auto;html=1;" parent="1" source="ckZQzvzNnewIk4Tqqs-Q-148" target="ckZQzvzNnewIk4Tqqs-Q-151" edge="1">
          <mxGeometry relative="1" as="geometry" />
        </mxCell>
        <mxCell id="ckZQzvzNnewIk4Tqqs-Q-148" value="Choose Login type" style="shape=parallelogram;perimeter=parallelogramPerimeter;whiteSpace=wrap;html=1;fixedSize=1;strokeWidth=2;rounded=1;arcSize=12;" parent="1" vertex="1">
          <mxGeometry x="1535" y="210" width="145" height="40" as="geometry" />
        </mxCell>
        <mxCell id="ckZQzvzNnewIk4Tqqs-Q-206" style="edgeStyle=orthogonalEdgeStyle;rounded=0;orthogonalLoop=1;jettySize=auto;html=1;exitX=0;exitY=0.5;exitDx=0;exitDy=0;entryX=0.5;entryY=0;entryDx=0;entryDy=0;" parent="1" source="ckZQzvzNnewIk4Tqqs-Q-151" target="ckZQzvzNnewIk4Tqqs-Q-188" edge="1">
          <mxGeometry relative="1" as="geometry" />
        </mxCell>
        <mxCell id="ckZQzvzNnewIk4Tqqs-Q-233" style="edgeStyle=orthogonalEdgeStyle;rounded=0;orthogonalLoop=1;jettySize=auto;html=1;exitX=1;exitY=0.5;exitDx=0;exitDy=0;entryX=0.5;entryY=0;entryDx=0;entryDy=0;" parent="1" source="ckZQzvzNnewIk4Tqqs-Q-151" target="ckZQzvzNnewIk4Tqqs-Q-214" edge="1">
          <mxGeometry relative="1" as="geometry" />
        </mxCell>
        <mxCell id="ckZQzvzNnewIk4Tqqs-Q-151" value="Register as?" style="rhombus;whiteSpace=wrap;html=1;strokeWidth=2;rounded=1;arcSize=12;" parent="1" vertex="1">
          <mxGeometry x="1542.5" y="300" width="130" height="80" as="geometry" />
        </mxCell>
        <mxCell id="ckZQzvzNnewIk4Tqqs-Q-152" value="Admin" style="text;strokeColor=none;align=center;fillColor=none;html=1;verticalAlign=middle;whiteSpace=wrap;rounded=0;" parent="1" vertex="1">
          <mxGeometry x="1672.5" y="310" width="60" height="30" as="geometry" />
        </mxCell>
        <mxCell id="ckZQzvzNnewIk4Tqqs-Q-153" value="Staff" style="text;strokeColor=none;align=center;fillColor=none;html=1;verticalAlign=middle;whiteSpace=wrap;rounded=0;" parent="1" vertex="1">
          <mxGeometry x="1482.5" y="310" width="60" height="30" as="geometry" />
        </mxCell>
        <mxCell id="ckZQzvzNnewIk4Tqqs-Q-187" value="" style="edgeStyle=orthogonalEdgeStyle;rounded=0;orthogonalLoop=1;jettySize=auto;html=1;" parent="1" source="ckZQzvzNnewIk4Tqqs-Q-188" target="ckZQzvzNnewIk4Tqqs-Q-191" edge="1">
          <mxGeometry relative="1" as="geometry" />
        </mxCell>
        <mxCell id="ckZQzvzNnewIk4Tqqs-Q-188" value="Display Staff Register Form" style="shape=parallelogram;perimeter=parallelogramPerimeter;whiteSpace=wrap;html=1;fixedSize=1;strokeWidth=2;rounded=1;arcSize=12;" parent="1" vertex="1">
          <mxGeometry x="1159.99" y="400" width="190" height="40" as="geometry" />
        </mxCell>
        <mxCell id="ckZQzvzNnewIk4Tqqs-Q-190" value="" style="edgeStyle=orthogonalEdgeStyle;rounded=0;orthogonalLoop=1;jettySize=auto;html=1;" parent="1" source="ckZQzvzNnewIk4Tqqs-Q-191" target="ckZQzvzNnewIk4Tqqs-Q-193" edge="1">
          <mxGeometry relative="1" as="geometry" />
        </mxCell>
        <mxCell id="ckZQzvzNnewIk4Tqqs-Q-191" value="Enter Username" style="shape=parallelogram;perimeter=parallelogramPerimeter;whiteSpace=wrap;html=1;fixedSize=1;strokeWidth=2;rounded=1;arcSize=12;" parent="1" vertex="1">
          <mxGeometry x="1170" y="478.75" width="170" height="30" as="geometry" />
        </mxCell>
        <mxCell id="ckZQzvzNnewIk4Tqqs-Q-208" value="" style="edgeStyle=orthogonalEdgeStyle;rounded=0;orthogonalLoop=1;jettySize=auto;html=1;" parent="1" source="ckZQzvzNnewIk4Tqqs-Q-193" target="ckZQzvzNnewIk4Tqqs-Q-207" edge="1">
          <mxGeometry relative="1" as="geometry" />
        </mxCell>
        <mxCell id="ckZQzvzNnewIk4Tqqs-Q-193" value="Enter Password" style="shape=parallelogram;perimeter=parallelogramPerimeter;whiteSpace=wrap;html=1;fixedSize=1;strokeWidth=2;rounded=1;arcSize=12;" parent="1" vertex="1">
          <mxGeometry x="1170.01" y="548.75" width="170" height="30" as="geometry" />
        </mxCell>
        <mxCell id="ckZQzvzNnewIk4Tqqs-Q-194" value="" style="edgeStyle=orthogonalEdgeStyle;rounded=0;orthogonalLoop=1;jettySize=auto;html=1;" parent="1" source="ckZQzvzNnewIk4Tqqs-Q-195" target="ckZQzvzNnewIk4Tqqs-Q-198" edge="1">
          <mxGeometry relative="1" as="geometry" />
        </mxCell>
        <mxCell id="ckZQzvzNnewIk4Tqqs-Q-195" value="REGISTER" style="rounded=1;whiteSpace=wrap;html=1;strokeWidth=2;arcSize=12;" parent="1" vertex="1">
          <mxGeometry x="1218.76" y="735" width="72.51" height="25" as="geometry" />
        </mxCell>
        <mxCell id="ckZQzvzNnewIk4Tqqs-Q-197" value="" style="edgeStyle=orthogonalEdgeStyle;rounded=0;orthogonalLoop=1;jettySize=auto;html=1;" parent="1" source="ckZQzvzNnewIk4Tqqs-Q-198" target="ckZQzvzNnewIk4Tqqs-Q-203" edge="1">
          <mxGeometry relative="1" as="geometry" />
        </mxCell>
        <mxCell id="ckZQzvzNnewIk4Tqqs-Q-210" style="edgeStyle=orthogonalEdgeStyle;rounded=0;orthogonalLoop=1;jettySize=auto;html=1;exitX=1;exitY=0.5;exitDx=0;exitDy=0;entryX=0.5;entryY=1;entryDx=0;entryDy=0;" parent="1" source="ckZQzvzNnewIk4Tqqs-Q-198" target="ckZQzvzNnewIk4Tqqs-Q-200" edge="1">
          <mxGeometry relative="1" as="geometry" />
        </mxCell>
        <mxCell id="ckZQzvzNnewIk4Tqqs-Q-198" value="Valid Credentials?" style="rhombus;whiteSpace=wrap;html=1;rounded=1;strokeWidth=2;arcSize=12;" parent="1" vertex="1">
          <mxGeometry x="1186.22" y="830" width="137.51" height="80" as="geometry" />
        </mxCell>
        <mxCell id="ckZQzvzNnewIk4Tqqs-Q-199" style="edgeStyle=orthogonalEdgeStyle;rounded=0;orthogonalLoop=1;jettySize=auto;html=1;exitX=0.5;exitY=0;exitDx=0;exitDy=0;endArrow=none;endFill=0;" parent="1" source="ckZQzvzNnewIk4Tqqs-Q-200" edge="1">
          <mxGeometry relative="1" as="geometry">
            <mxPoint x="1252.5" y="458.75" as="targetPoint" />
            <Array as="points">
              <mxPoint x="1455.5" y="458.75" />
            </Array>
          </mxGeometry>
        </mxCell>
        <mxCell id="ckZQzvzNnewIk4Tqqs-Q-200" value="CLEAR Credentials Entered" style="whiteSpace=wrap;html=1;rounded=1;strokeWidth=2;arcSize=12;" parent="1" vertex="1">
          <mxGeometry x="1394.995" y="593.75" width="120" height="60" as="geometry" />
        </mxCell>
        <mxCell id="ckZQzvzNnewIk4Tqqs-Q-202" value="" style="edgeStyle=orthogonalEdgeStyle;rounded=0;orthogonalLoop=1;jettySize=auto;html=1;" parent="1" source="ckZQzvzNnewIk4Tqqs-Q-203" target="ckZQzvzNnewIk4Tqqs-Q-205" edge="1">
          <mxGeometry relative="1" as="geometry" />
        </mxCell>
        <mxCell id="ckZQzvzNnewIk4Tqqs-Q-203" value="Registered Successfully!" style="shape=parallelogram;perimeter=parallelogramPerimeter;whiteSpace=wrap;html=1;fixedSize=1;rounded=1;strokeWidth=2;arcSize=12;" parent="1" vertex="1">
          <mxGeometry x="1167.48" y="967.5" width="175.02" height="32.5" as="geometry" />
        </mxCell>
        <mxCell id="ckZQzvzNnewIk4Tqqs-Q-235" style="edgeStyle=orthogonalEdgeStyle;rounded=0;orthogonalLoop=1;jettySize=auto;html=1;exitX=0.5;exitY=1;exitDx=0;exitDy=0;" parent="1" source="ckZQzvzNnewIk4Tqqs-Q-205" target="ckZQzvzNnewIk4Tqqs-Q-90" edge="1">
          <mxGeometry relative="1" as="geometry" />
        </mxCell>
        <mxCell id="ckZQzvzNnewIk4Tqqs-Q-205" value="Staff Login Form" style="whiteSpace=wrap;html=1;rounded=1;strokeWidth=2;arcSize=12;" parent="1" vertex="1">
          <mxGeometry x="1195.02" y="1052.5" width="120" height="30" as="geometry" />
        </mxCell>
        <mxCell id="ckZQzvzNnewIk4Tqqs-Q-209" style="edgeStyle=orthogonalEdgeStyle;rounded=0;orthogonalLoop=1;jettySize=auto;html=1;exitX=0.5;exitY=1;exitDx=0;exitDy=0;entryX=0.5;entryY=0;entryDx=0;entryDy=0;" parent="1" source="ckZQzvzNnewIk4Tqqs-Q-207" target="ckZQzvzNnewIk4Tqqs-Q-195" edge="1">
          <mxGeometry relative="1" as="geometry" />
        </mxCell>
        <mxCell id="ckZQzvzNnewIk4Tqqs-Q-207" value="Enter Mobile Number" style="shape=parallelogram;perimeter=parallelogramPerimeter;whiteSpace=wrap;html=1;fixedSize=1;strokeWidth=2;rounded=1;arcSize=12;" parent="1" vertex="1">
          <mxGeometry x="1170.01" y="620" width="170" height="30" as="geometry" />
        </mxCell>
        <mxCell id="ckZQzvzNnewIk4Tqqs-Q-211" value="False" style="text;strokeColor=none;align=center;fillColor=none;html=1;verticalAlign=middle;whiteSpace=wrap;rounded=0;" parent="1" vertex="1">
          <mxGeometry x="1323.73" y="840" width="60" height="30" as="geometry" />
        </mxCell>
        <mxCell id="ckZQzvzNnewIk4Tqqs-Q-212" value="True" style="text;strokeColor=none;align=center;fillColor=none;html=1;verticalAlign=middle;whiteSpace=wrap;rounded=0;" parent="1" vertex="1">
          <mxGeometry x="1194.98" y="910" width="60" height="30" as="geometry" />
        </mxCell>
        <mxCell id="ckZQzvzNnewIk4Tqqs-Q-213" value="" style="edgeStyle=orthogonalEdgeStyle;rounded=0;orthogonalLoop=1;jettySize=auto;html=1;" parent="1" source="ckZQzvzNnewIk4Tqqs-Q-214" target="ckZQzvzNnewIk4Tqqs-Q-216" edge="1">
          <mxGeometry relative="1" as="geometry" />
        </mxCell>
        <mxCell id="ckZQzvzNnewIk4Tqqs-Q-214" value="Display Admin Register Form" style="shape=parallelogram;perimeter=parallelogramPerimeter;whiteSpace=wrap;html=1;fixedSize=1;strokeWidth=2;rounded=1;arcSize=12;" parent="1" vertex="1">
          <mxGeometry x="1860" y="400" width="190" height="40" as="geometry" />
        </mxCell>
        <mxCell id="ckZQzvzNnewIk4Tqqs-Q-215" value="" style="edgeStyle=orthogonalEdgeStyle;rounded=0;orthogonalLoop=1;jettySize=auto;html=1;" parent="1" source="ckZQzvzNnewIk4Tqqs-Q-216" target="ckZQzvzNnewIk4Tqqs-Q-218" edge="1">
          <mxGeometry relative="1" as="geometry" />
        </mxCell>
        <mxCell id="ckZQzvzNnewIk4Tqqs-Q-216" value="Enter Username" style="shape=parallelogram;perimeter=parallelogramPerimeter;whiteSpace=wrap;html=1;fixedSize=1;strokeWidth=2;rounded=1;arcSize=12;" parent="1" vertex="1">
          <mxGeometry x="1870.01" y="478.75" width="170" height="30" as="geometry" />
        </mxCell>
        <mxCell id="ckZQzvzNnewIk4Tqqs-Q-217" value="" style="edgeStyle=orthogonalEdgeStyle;rounded=0;orthogonalLoop=1;jettySize=auto;html=1;" parent="1" source="ckZQzvzNnewIk4Tqqs-Q-218" target="ckZQzvzNnewIk4Tqqs-Q-230" edge="1">
          <mxGeometry relative="1" as="geometry" />
        </mxCell>
        <mxCell id="ckZQzvzNnewIk4Tqqs-Q-218" value="Enter Password" style="shape=parallelogram;perimeter=parallelogramPerimeter;whiteSpace=wrap;html=1;fixedSize=1;strokeWidth=2;rounded=1;arcSize=12;" parent="1" vertex="1">
          <mxGeometry x="1870.02" y="548.75" width="170" height="30" as="geometry" />
        </mxCell>
        <mxCell id="ckZQzvzNnewIk4Tqqs-Q-219" value="" style="edgeStyle=orthogonalEdgeStyle;rounded=0;orthogonalLoop=1;jettySize=auto;html=1;" parent="1" source="ckZQzvzNnewIk4Tqqs-Q-220" target="ckZQzvzNnewIk4Tqqs-Q-223" edge="1">
          <mxGeometry relative="1" as="geometry" />
        </mxCell>
        <mxCell id="ckZQzvzNnewIk4Tqqs-Q-220" value="REGISTER" style="rounded=1;whiteSpace=wrap;html=1;strokeWidth=2;arcSize=12;" parent="1" vertex="1">
          <mxGeometry x="1918.77" y="735" width="72.51" height="25" as="geometry" />
        </mxCell>
        <mxCell id="ckZQzvzNnewIk4Tqqs-Q-221" value="" style="edgeStyle=orthogonalEdgeStyle;rounded=0;orthogonalLoop=1;jettySize=auto;html=1;" parent="1" source="ckZQzvzNnewIk4Tqqs-Q-223" target="ckZQzvzNnewIk4Tqqs-Q-227" edge="1">
          <mxGeometry relative="1" as="geometry" />
        </mxCell>
        <mxCell id="ckZQzvzNnewIk4Tqqs-Q-222" style="edgeStyle=orthogonalEdgeStyle;rounded=0;orthogonalLoop=1;jettySize=auto;html=1;exitX=1;exitY=0.5;exitDx=0;exitDy=0;entryX=0.5;entryY=1;entryDx=0;entryDy=0;" parent="1" source="ckZQzvzNnewIk4Tqqs-Q-223" target="ckZQzvzNnewIk4Tqqs-Q-225" edge="1">
          <mxGeometry relative="1" as="geometry" />
        </mxCell>
        <mxCell id="ckZQzvzNnewIk4Tqqs-Q-223" value="Valid Credentials?" style="rhombus;whiteSpace=wrap;html=1;rounded=1;strokeWidth=2;arcSize=12;" parent="1" vertex="1">
          <mxGeometry x="1886.23" y="830" width="137.51" height="80" as="geometry" />
        </mxCell>
        <mxCell id="ckZQzvzNnewIk4Tqqs-Q-224" style="edgeStyle=orthogonalEdgeStyle;rounded=0;orthogonalLoop=1;jettySize=auto;html=1;exitX=0.5;exitY=0;exitDx=0;exitDy=0;endArrow=none;endFill=0;" parent="1" source="ckZQzvzNnewIk4Tqqs-Q-225" edge="1">
          <mxGeometry relative="1" as="geometry">
            <mxPoint x="1952.51" y="458.75" as="targetPoint" />
            <Array as="points">
              <mxPoint x="2155.51" y="458.75" />
            </Array>
          </mxGeometry>
        </mxCell>
        <mxCell id="ckZQzvzNnewIk4Tqqs-Q-225" value="CLEAR Credentials Entered" style="whiteSpace=wrap;html=1;rounded=1;strokeWidth=2;arcSize=12;" parent="1" vertex="1">
          <mxGeometry x="2095.005" y="593.75" width="120" height="60" as="geometry" />
        </mxCell>
        <mxCell id="ckZQzvzNnewIk4Tqqs-Q-226" value="" style="edgeStyle=orthogonalEdgeStyle;rounded=0;orthogonalLoop=1;jettySize=auto;html=1;" parent="1" source="ckZQzvzNnewIk4Tqqs-Q-227" target="ckZQzvzNnewIk4Tqqs-Q-228" edge="1">
          <mxGeometry relative="1" as="geometry" />
        </mxCell>
        <mxCell id="ckZQzvzNnewIk4Tqqs-Q-227" value="Registered Successfully!" style="shape=parallelogram;perimeter=parallelogramPerimeter;whiteSpace=wrap;html=1;fixedSize=1;rounded=1;strokeWidth=2;arcSize=12;" parent="1" vertex="1">
          <mxGeometry x="1867.49" y="967.5" width="175.02" height="32.5" as="geometry" />
        </mxCell>
        <mxCell id="ckZQzvzNnewIk4Tqqs-Q-236" style="edgeStyle=orthogonalEdgeStyle;rounded=0;orthogonalLoop=1;jettySize=auto;html=1;exitX=0.5;exitY=1;exitDx=0;exitDy=0;" parent="1" source="ckZQzvzNnewIk4Tqqs-Q-228" target="ckZQzvzNnewIk4Tqqs-Q-90" edge="1">
          <mxGeometry relative="1" as="geometry" />
        </mxCell>
        <mxCell id="ckZQzvzNnewIk4Tqqs-Q-228" value="Admin Login Form" style="whiteSpace=wrap;html=1;rounded=1;strokeWidth=2;arcSize=12;" parent="1" vertex="1">
          <mxGeometry x="1895.03" y="1052.5" width="120" height="30" as="geometry" />
        </mxCell>
        <mxCell id="ckZQzvzNnewIk4Tqqs-Q-229" style="edgeStyle=orthogonalEdgeStyle;rounded=0;orthogonalLoop=1;jettySize=auto;html=1;exitX=0.5;exitY=1;exitDx=0;exitDy=0;entryX=0.5;entryY=0;entryDx=0;entryDy=0;" parent="1" source="ckZQzvzNnewIk4Tqqs-Q-230" target="ckZQzvzNnewIk4Tqqs-Q-220" edge="1">
          <mxGeometry relative="1" as="geometry" />
        </mxCell>
        <mxCell id="ckZQzvzNnewIk4Tqqs-Q-230" value="Enter Mobile Number" style="shape=parallelogram;perimeter=parallelogramPerimeter;whiteSpace=wrap;html=1;fixedSize=1;strokeWidth=2;rounded=1;arcSize=12;" parent="1" vertex="1">
          <mxGeometry x="1870.02" y="620" width="170" height="30" as="geometry" />
        </mxCell>
        <mxCell id="ckZQzvzNnewIk4Tqqs-Q-231" value="False" style="text;strokeColor=none;align=center;fillColor=none;html=1;verticalAlign=middle;whiteSpace=wrap;rounded=0;" parent="1" vertex="1">
          <mxGeometry x="2023.7399999999998" y="840" width="60" height="30" as="geometry" />
        </mxCell>
        <mxCell id="ckZQzvzNnewIk4Tqqs-Q-232" value="True" style="text;strokeColor=none;align=center;fillColor=none;html=1;verticalAlign=middle;whiteSpace=wrap;rounded=0;" parent="1" vertex="1">
          <mxGeometry x="1894.99" y="910" width="60" height="30" as="geometry" />
        </mxCell>
        <mxCell id="ckZQzvzNnewIk4Tqqs-Q-240" value="Login" style="text;strokeColor=none;align=center;fillColor=none;html=1;verticalAlign=middle;whiteSpace=wrap;rounded=0;" parent="1" vertex="1">
          <mxGeometry x="906.25" y="20" width="60" height="30" as="geometry" />
        </mxCell>
        <mxCell id="ckZQzvzNnewIk4Tqqs-Q-241" value="Register" style="text;strokeColor=none;align=center;fillColor=none;html=1;verticalAlign=middle;whiteSpace=wrap;rounded=0;" parent="1" vertex="1">
          <mxGeometry x="1066.25" y="20" width="60" height="30" as="geometry" />
        </mxCell>
        <mxCell id="ckZQzvzNnewIk4Tqqs-Q-245" value="COFFEE SHOP LOGIN INTERFACE" style="text;strokeColor=#82b366;align=center;fillColor=#d5e8d4;html=1;verticalAlign=middle;whiteSpace=wrap;rounded=1;fillStyle=solid;glass=1;shadow=1;fontStyle=3;fontSize=18;" parent="1" vertex="1">
          <mxGeometry x="854.38" y="-370" width="323.75" height="40" as="geometry" />
        </mxCell>
        <mxCell id="ckZQzvzNnewIk4Tqqs-Q-246" value="CUSTOMER&#39;S LOGIN INTERFACE&lt;br&gt;(Website and Android)" style="text;strokeColor=#82b366;align=center;fillColor=#d5e8d4;html=1;verticalAlign=middle;whiteSpace=wrap;rounded=1;fillStyle=solid;glass=1;shadow=1;fontStyle=3;fontSize=18;" parent="1" vertex="1">
          <mxGeometry x="2708.13" y="-390" width="323.75" height="60" as="geometry" />
        </mxCell>
        <mxCell id="ckZQzvzNnewIk4Tqqs-Q-252" style="edgeStyle=orthogonalEdgeStyle;rounded=0;orthogonalLoop=1;jettySize=auto;html=1;exitX=0.5;exitY=1;exitDx=0;exitDy=0;exitPerimeter=0;entryX=0.5;entryY=0;entryDx=0;entryDy=0;" parent="1" source="ckZQzvzNnewIk4Tqqs-Q-249" target="ckZQzvzNnewIk4Tqqs-Q-250" edge="1">
          <mxGeometry relative="1" as="geometry" />
        </mxCell>
        <mxCell id="ckZQzvzNnewIk4Tqqs-Q-249" value="START" style="strokeWidth=2;html=1;shape=mxgraph.flowchart.terminator;whiteSpace=wrap;" parent="1" vertex="1">
          <mxGeometry x="2820" y="-285" width="100" height="45" as="geometry" />
        </mxCell>
        <mxCell id="ckZQzvzNnewIk4Tqqs-Q-254" value="" style="edgeStyle=orthogonalEdgeStyle;rounded=0;orthogonalLoop=1;jettySize=auto;html=1;" parent="1" source="ckZQzvzNnewIk4Tqqs-Q-250" target="ckZQzvzNnewIk4Tqqs-Q-253" edge="1">
          <mxGeometry relative="1" as="geometry" />
        </mxCell>
        <mxCell id="ckZQzvzNnewIk4Tqqs-Q-250" value="Display Login and Register Type Form" style="shape=parallelogram;perimeter=parallelogramPerimeter;whiteSpace=wrap;html=1;fixedSize=1;strokeWidth=2;" parent="1" vertex="1">
          <mxGeometry x="2745" y="-180" width="250" height="27.5" as="geometry" />
        </mxCell>
        <mxCell id="ckZQzvzNnewIk4Tqqs-Q-256" value="" style="edgeStyle=orthogonalEdgeStyle;rounded=0;orthogonalLoop=1;jettySize=auto;html=1;" parent="1" source="ckZQzvzNnewIk4Tqqs-Q-253" target="ckZQzvzNnewIk4Tqqs-Q-255" edge="1">
          <mxGeometry relative="1" as="geometry" />
        </mxCell>
        <mxCell id="ckZQzvzNnewIk4Tqqs-Q-253" value="Choose if Login or Register" style="shape=parallelogram;perimeter=parallelogramPerimeter;whiteSpace=wrap;html=1;fixedSize=1;strokeWidth=2;" parent="1" vertex="1">
          <mxGeometry x="2745" y="-90" width="250" height="27.5" as="geometry" />
        </mxCell>
        <mxCell id="ckZQzvzNnewIk4Tqqs-Q-258" value="" style="edgeStyle=orthogonalEdgeStyle;rounded=0;orthogonalLoop=1;jettySize=auto;html=1;" parent="1" source="ckZQzvzNnewIk4Tqqs-Q-255" target="ckZQzvzNnewIk4Tqqs-Q-257" edge="1">
          <mxGeometry relative="1" as="geometry" />
        </mxCell>
        <mxCell id="ckZQzvzNnewIk4Tqqs-Q-260" value="" style="edgeStyle=orthogonalEdgeStyle;rounded=0;orthogonalLoop=1;jettySize=auto;html=1;" parent="1" source="ckZQzvzNnewIk4Tqqs-Q-255" target="ckZQzvzNnewIk4Tqqs-Q-259" edge="1">
          <mxGeometry relative="1" as="geometry" />
        </mxCell>
        <mxCell id="ckZQzvzNnewIk4Tqqs-Q-255" value="Continue to?" style="rhombus;whiteSpace=wrap;html=1;strokeWidth=2;" parent="1" vertex="1">
          <mxGeometry x="2815" y="-20" width="110" height="65" as="geometry" />
        </mxCell>
        <mxCell id="ckZQzvzNnewIk4Tqqs-Q-307" value="" style="edgeStyle=orthogonalEdgeStyle;rounded=0;orthogonalLoop=1;jettySize=auto;html=1;" parent="1" source="ckZQzvzNnewIk4Tqqs-Q-257" target="ckZQzvzNnewIk4Tqqs-Q-306" edge="1">
          <mxGeometry relative="1" as="geometry" />
        </mxCell>
        <mxCell id="ckZQzvzNnewIk4Tqqs-Q-257" value="Display Login Form" style="shape=parallelogram;perimeter=parallelogramPerimeter;whiteSpace=wrap;html=1;fixedSize=1;strokeWidth=2;" parent="1" vertex="1">
          <mxGeometry x="2590" y="-1.25" width="140" height="27.5" as="geometry" />
        </mxCell>
        <mxCell id="ckZQzvzNnewIk4Tqqs-Q-263" value="" style="edgeStyle=orthogonalEdgeStyle;rounded=0;orthogonalLoop=1;jettySize=auto;html=1;" parent="1" source="ckZQzvzNnewIk4Tqqs-Q-259" target="ckZQzvzNnewIk4Tqqs-Q-262" edge="1">
          <mxGeometry relative="1" as="geometry" />
        </mxCell>
        <mxCell id="ckZQzvzNnewIk4Tqqs-Q-259" value="Display Register Form" style="shape=parallelogram;perimeter=parallelogramPerimeter;whiteSpace=wrap;html=1;fixedSize=1;strokeWidth=2;" parent="1" vertex="1">
          <mxGeometry x="3000" y="-1.25" width="150" height="27.5" as="geometry" />
        </mxCell>
        <mxCell id="ckZQzvzNnewIk4Tqqs-Q-265" value="" style="edgeStyle=orthogonalEdgeStyle;rounded=0;orthogonalLoop=1;jettySize=auto;html=1;align=center;" parent="1" source="ckZQzvzNnewIk4Tqqs-Q-262" target="ckZQzvzNnewIk4Tqqs-Q-264" edge="1">
          <mxGeometry relative="1" as="geometry" />
        </mxCell>
        <mxCell id="ckZQzvzNnewIk4Tqqs-Q-262" value="Enter Username" style="shape=parallelogram;perimeter=parallelogramPerimeter;whiteSpace=wrap;html=1;fixedSize=1;strokeWidth=2;align=center;" parent="1" vertex="1">
          <mxGeometry x="3015" y="70" width="120" height="20" as="geometry" />
        </mxCell>
        <mxCell id="ckZQzvzNnewIk4Tqqs-Q-268" value="" style="edgeStyle=orthogonalEdgeStyle;rounded=0;orthogonalLoop=1;jettySize=auto;html=1;align=center;" parent="1" source="ckZQzvzNnewIk4Tqqs-Q-264" target="ckZQzvzNnewIk4Tqqs-Q-267" edge="1">
          <mxGeometry relative="1" as="geometry" />
        </mxCell>
        <mxCell id="ckZQzvzNnewIk4Tqqs-Q-264" value="Enter Password" style="shape=parallelogram;perimeter=parallelogramPerimeter;whiteSpace=wrap;html=1;fixedSize=1;strokeWidth=2;align=center;" parent="1" vertex="1">
          <mxGeometry x="3015" y="120" width="120" height="20" as="geometry" />
        </mxCell>
        <mxCell id="ckZQzvzNnewIk4Tqqs-Q-270" value="" style="edgeStyle=orthogonalEdgeStyle;rounded=0;orthogonalLoop=1;jettySize=auto;html=1;" parent="1" source="ckZQzvzNnewIk4Tqqs-Q-267" target="ckZQzvzNnewIk4Tqqs-Q-269" edge="1">
          <mxGeometry relative="1" as="geometry" />
        </mxCell>
        <mxCell id="ckZQzvzNnewIk4Tqqs-Q-267" value="Enter Mobile Number" style="shape=parallelogram;perimeter=parallelogramPerimeter;whiteSpace=wrap;html=1;fixedSize=1;strokeWidth=2;align=center;" parent="1" vertex="1">
          <mxGeometry x="2992.5" y="180" width="165" height="20" as="geometry" />
        </mxCell>
        <mxCell id="ckZQzvzNnewIk4Tqqs-Q-272" value="" style="edgeStyle=orthogonalEdgeStyle;rounded=0;orthogonalLoop=1;jettySize=auto;html=1;" parent="1" source="ckZQzvzNnewIk4Tqqs-Q-269" target="ckZQzvzNnewIk4Tqqs-Q-271" edge="1">
          <mxGeometry relative="1" as="geometry" />
        </mxCell>
        <mxCell id="ckZQzvzNnewIk4Tqqs-Q-269" value="REGISTER" style="whiteSpace=wrap;html=1;strokeWidth=2;" parent="1" vertex="1">
          <mxGeometry x="3032.5" y="240" width="85" height="30" as="geometry" />
        </mxCell>
        <mxCell id="ckZQzvzNnewIk4Tqqs-Q-274" value="" style="edgeStyle=orthogonalEdgeStyle;rounded=0;orthogonalLoop=1;jettySize=auto;html=1;" parent="1" source="ckZQzvzNnewIk4Tqqs-Q-271" target="ckZQzvzNnewIk4Tqqs-Q-273" edge="1">
          <mxGeometry relative="1" as="geometry" />
        </mxCell>
        <mxCell id="ckZQzvzNnewIk4Tqqs-Q-279" value="" style="edgeStyle=orthogonalEdgeStyle;rounded=0;orthogonalLoop=1;jettySize=auto;html=1;" parent="1" source="ckZQzvzNnewIk4Tqqs-Q-271" target="ckZQzvzNnewIk4Tqqs-Q-278" edge="1">
          <mxGeometry relative="1" as="geometry" />
        </mxCell>
        <mxCell id="ckZQzvzNnewIk4Tqqs-Q-271" value="Valid Credentials?" style="rhombus;whiteSpace=wrap;html=1;strokeWidth=2;" parent="1" vertex="1">
          <mxGeometry x="3002.5" y="310" width="145" height="60" as="geometry" />
        </mxCell>
        <mxCell id="ckZQzvzNnewIk4Tqqs-Q-275" style="edgeStyle=orthogonalEdgeStyle;rounded=0;orthogonalLoop=1;jettySize=auto;html=1;exitX=0.5;exitY=0;exitDx=0;exitDy=0;endArrow=none;endFill=0;" parent="1" edge="1">
          <mxGeometry relative="1" as="geometry">
            <mxPoint x="3075" y="40" as="targetPoint" />
            <mxPoint x="3285" y="230" as="sourcePoint" />
            <Array as="points">
              <mxPoint x="3285" y="40" />
            </Array>
          </mxGeometry>
        </mxCell>
        <mxCell id="ckZQzvzNnewIk4Tqqs-Q-273" value="CLEAR credentials Entered" style="whiteSpace=wrap;html=1;strokeWidth=2;" parent="1" vertex="1">
          <mxGeometry x="3220" y="230" width="120" height="40" as="geometry" />
        </mxCell>
        <mxCell id="ckZQzvzNnewIk4Tqqs-Q-276" value="False" style="text;strokeColor=none;align=center;fillColor=none;html=1;verticalAlign=middle;whiteSpace=wrap;rounded=0;" parent="1" vertex="1">
          <mxGeometry x="3147.5" y="310" width="60" height="30" as="geometry" />
        </mxCell>
        <mxCell id="ckZQzvzNnewIk4Tqqs-Q-281" value="" style="edgeStyle=orthogonalEdgeStyle;rounded=0;orthogonalLoop=1;jettySize=auto;html=1;" parent="1" source="ckZQzvzNnewIk4Tqqs-Q-278" target="ckZQzvzNnewIk4Tqqs-Q-280" edge="1">
          <mxGeometry relative="1" as="geometry" />
        </mxCell>
        <mxCell id="ckZQzvzNnewIk4Tqqs-Q-278" value="Registered Successfully!" style="shape=parallelogram;perimeter=parallelogramPerimeter;whiteSpace=wrap;html=1;fixedSize=1;strokeWidth=2;" parent="1" vertex="1">
          <mxGeometry x="2987.5" y="430" width="175" height="30" as="geometry" />
        </mxCell>
        <mxCell id="ckZQzvzNnewIk4Tqqs-Q-285" style="edgeStyle=orthogonalEdgeStyle;rounded=0;orthogonalLoop=1;jettySize=auto;html=1;exitX=0.5;exitY=1;exitDx=0;exitDy=0;entryX=0.5;entryY=0;entryDx=0;entryDy=0;entryPerimeter=0;" parent="1" source="ckZQzvzNnewIk4Tqqs-Q-280" target="ckZQzvzNnewIk4Tqqs-Q-284" edge="1">
          <mxGeometry relative="1" as="geometry" />
        </mxCell>
        <mxCell id="ckZQzvzNnewIk4Tqqs-Q-280" value="User Login Form" style="whiteSpace=wrap;html=1;strokeWidth=2;" parent="1" vertex="1">
          <mxGeometry x="3015" y="525" width="120" height="25" as="geometry" />
        </mxCell>
        <mxCell id="ckZQzvzNnewIk4Tqqs-Q-284" value="END" style="strokeWidth=2;html=1;shape=mxgraph.flowchart.terminator;whiteSpace=wrap;" parent="1" vertex="1">
          <mxGeometry x="3025" y="775" width="100" height="45" as="geometry" />
        </mxCell>
        <mxCell id="ckZQzvzNnewIk4Tqqs-Q-286" value="True" style="text;strokeColor=none;align=center;fillColor=none;html=1;verticalAlign=middle;whiteSpace=wrap;rounded=0;" parent="1" vertex="1">
          <mxGeometry x="3015" y="370" width="60" height="30" as="geometry" />
        </mxCell>
        <mxCell id="ckZQzvzNnewIk4Tqqs-Q-287" value="" style="edgeStyle=orthogonalEdgeStyle;rounded=0;orthogonalLoop=1;jettySize=auto;html=1;align=center;" parent="1" source="ckZQzvzNnewIk4Tqqs-Q-288" target="ckZQzvzNnewIk4Tqqs-Q-290" edge="1">
          <mxGeometry relative="1" as="geometry" />
        </mxCell>
        <mxCell id="ckZQzvzNnewIk4Tqqs-Q-288" value="Enter Username" style="shape=parallelogram;perimeter=parallelogramPerimeter;whiteSpace=wrap;html=1;fixedSize=1;strokeWidth=2;align=center;" parent="1" vertex="1">
          <mxGeometry x="2600" y="300" width="120" height="20" as="geometry" />
        </mxCell>
        <mxCell id="ckZQzvzNnewIk4Tqqs-Q-305" style="edgeStyle=orthogonalEdgeStyle;rounded=0;orthogonalLoop=1;jettySize=auto;html=1;exitX=0.5;exitY=1;exitDx=0;exitDy=0;" parent="1" source="ckZQzvzNnewIk4Tqqs-Q-290" target="ckZQzvzNnewIk4Tqqs-Q-294" edge="1">
          <mxGeometry relative="1" as="geometry" />
        </mxCell>
        <mxCell id="ckZQzvzNnewIk4Tqqs-Q-290" value="Enter Password" style="shape=parallelogram;perimeter=parallelogramPerimeter;whiteSpace=wrap;html=1;fixedSize=1;strokeWidth=2;align=center;" parent="1" vertex="1">
          <mxGeometry x="2600" y="360" width="120" height="20" as="geometry" />
        </mxCell>
        <mxCell id="ckZQzvzNnewIk4Tqqs-Q-293" value="" style="edgeStyle=orthogonalEdgeStyle;rounded=0;orthogonalLoop=1;jettySize=auto;html=1;" parent="1" source="ckZQzvzNnewIk4Tqqs-Q-294" target="ckZQzvzNnewIk4Tqqs-Q-297" edge="1">
          <mxGeometry relative="1" as="geometry" />
        </mxCell>
        <mxCell id="ckZQzvzNnewIk4Tqqs-Q-294" value="LOGIN" style="whiteSpace=wrap;html=1;strokeWidth=2;" parent="1" vertex="1">
          <mxGeometry x="2617.5" y="420" width="85" height="30" as="geometry" />
        </mxCell>
        <mxCell id="ckZQzvzNnewIk4Tqqs-Q-295" value="" style="edgeStyle=orthogonalEdgeStyle;rounded=0;orthogonalLoop=1;jettySize=auto;html=1;" parent="1" source="ckZQzvzNnewIk4Tqqs-Q-297" target="ckZQzvzNnewIk4Tqqs-Q-299" edge="1">
          <mxGeometry relative="1" as="geometry" />
        </mxCell>
        <mxCell id="ckZQzvzNnewIk4Tqqs-Q-296" value="" style="edgeStyle=orthogonalEdgeStyle;rounded=0;orthogonalLoop=1;jettySize=auto;html=1;" parent="1" source="ckZQzvzNnewIk4Tqqs-Q-297" target="ckZQzvzNnewIk4Tqqs-Q-302" edge="1">
          <mxGeometry relative="1" as="geometry" />
        </mxCell>
        <mxCell id="ckZQzvzNnewIk4Tqqs-Q-297" value="Valid Credentials?" style="rhombus;whiteSpace=wrap;html=1;strokeWidth=2;" parent="1" vertex="1">
          <mxGeometry x="2587.5" y="490" width="145" height="60" as="geometry" />
        </mxCell>
        <mxCell id="ckZQzvzNnewIk4Tqqs-Q-314" style="edgeStyle=orthogonalEdgeStyle;rounded=0;orthogonalLoop=1;jettySize=auto;html=1;exitX=0.5;exitY=0;exitDx=0;exitDy=0;endArrow=none;endFill=0;" parent="1" source="ckZQzvzNnewIk4Tqqs-Q-299" edge="1">
          <mxGeometry relative="1" as="geometry">
            <mxPoint x="2660" y="270" as="targetPoint" />
            <Array as="points">
              <mxPoint x="2870" y="410" />
              <mxPoint x="2870" y="270" />
              <mxPoint x="2780" y="270" />
            </Array>
          </mxGeometry>
        </mxCell>
        <mxCell id="ckZQzvzNnewIk4Tqqs-Q-299" value="CLEAR credentials Entered" style="whiteSpace=wrap;html=1;strokeWidth=2;" parent="1" vertex="1">
          <mxGeometry x="2805" y="410" width="120" height="40" as="geometry" />
        </mxCell>
        <mxCell id="ckZQzvzNnewIk4Tqqs-Q-300" value="False" style="text;strokeColor=none;align=center;fillColor=none;html=1;verticalAlign=middle;whiteSpace=wrap;rounded=0;" parent="1" vertex="1">
          <mxGeometry x="2732.5" y="490" width="60" height="30" as="geometry" />
        </mxCell>
        <mxCell id="ckZQzvzNnewIk4Tqqs-Q-301" value="" style="edgeStyle=orthogonalEdgeStyle;rounded=0;orthogonalLoop=1;jettySize=auto;html=1;" parent="1" source="ckZQzvzNnewIk4Tqqs-Q-302" target="ckZQzvzNnewIk4Tqqs-Q-303" edge="1">
          <mxGeometry relative="1" as="geometry" />
        </mxCell>
        <mxCell id="ckZQzvzNnewIk4Tqqs-Q-302" value="Login Successful!" style="shape=parallelogram;perimeter=parallelogramPerimeter;whiteSpace=wrap;html=1;fixedSize=1;strokeWidth=2;" parent="1" vertex="1">
          <mxGeometry x="2572.5" y="610" width="175" height="30" as="geometry" />
        </mxCell>
        <mxCell id="ckZQzvzNnewIk4Tqqs-Q-315" style="edgeStyle=orthogonalEdgeStyle;rounded=0;orthogonalLoop=1;jettySize=auto;html=1;exitX=0.5;exitY=1;exitDx=0;exitDy=0;" parent="1" source="ckZQzvzNnewIk4Tqqs-Q-303" target="ckZQzvzNnewIk4Tqqs-Q-284" edge="1">
          <mxGeometry relative="1" as="geometry" />
        </mxCell>
        <mxCell id="ckZQzvzNnewIk4Tqqs-Q-303" value="Customer Dashboard" style="whiteSpace=wrap;html=1;strokeWidth=2;" parent="1" vertex="1">
          <mxGeometry x="2600" y="690" width="120" height="25" as="geometry" />
        </mxCell>
        <mxCell id="ckZQzvzNnewIk4Tqqs-Q-304" value="True" style="text;strokeColor=none;align=center;fillColor=none;html=1;verticalAlign=middle;whiteSpace=wrap;rounded=0;" parent="1" vertex="1">
          <mxGeometry x="2600" y="550" width="60" height="30" as="geometry" />
        </mxCell>
        <mxCell id="ckZQzvzNnewIk4Tqqs-Q-309" value="" style="edgeStyle=orthogonalEdgeStyle;rounded=0;orthogonalLoop=1;jettySize=auto;html=1;" parent="1" source="ckZQzvzNnewIk4Tqqs-Q-306" target="ckZQzvzNnewIk4Tqqs-Q-308" edge="1">
          <mxGeometry relative="1" as="geometry" />
        </mxCell>
        <mxCell id="ckZQzvzNnewIk4Tqqs-Q-306" value="Enter Verification Code" style="shape=parallelogram;perimeter=parallelogramPerimeter;whiteSpace=wrap;html=1;fixedSize=1;strokeWidth=2;" parent="1" vertex="1">
          <mxGeometry x="2570" y="102.5" width="180" height="27.5" as="geometry" />
        </mxCell>
        <mxCell id="ckZQzvzNnewIk4Tqqs-Q-310" style="edgeStyle=orthogonalEdgeStyle;rounded=0;orthogonalLoop=1;jettySize=auto;html=1;exitX=1;exitY=0.5;exitDx=0;exitDy=0;endArrow=none;endFill=0;" parent="1" source="ckZQzvzNnewIk4Tqqs-Q-308" edge="1">
          <mxGeometry relative="1" as="geometry">
            <mxPoint x="2660" y="50" as="targetPoint" />
            <Array as="points">
              <mxPoint x="2810" y="215" />
              <mxPoint x="2810" y="50" />
            </Array>
          </mxGeometry>
        </mxCell>
        <mxCell id="ckZQzvzNnewIk4Tqqs-Q-312" style="edgeStyle=orthogonalEdgeStyle;rounded=0;orthogonalLoop=1;jettySize=auto;html=1;exitX=0.5;exitY=1;exitDx=0;exitDy=0;entryX=0.5;entryY=0;entryDx=0;entryDy=0;" parent="1" source="ckZQzvzNnewIk4Tqqs-Q-308" target="ckZQzvzNnewIk4Tqqs-Q-288" edge="1">
          <mxGeometry relative="1" as="geometry" />
        </mxCell>
        <mxCell id="ckZQzvzNnewIk4Tqqs-Q-308" value="Valid Code?" style="rhombus;whiteSpace=wrap;html=1;strokeWidth=2;" parent="1" vertex="1">
          <mxGeometry x="2610" y="180" width="100" height="70" as="geometry" />
        </mxCell>
        <mxCell id="ckZQzvzNnewIk4Tqqs-Q-311" value="False" style="text;strokeColor=none;align=center;fillColor=none;html=1;verticalAlign=middle;whiteSpace=wrap;rounded=0;" parent="1" vertex="1">
          <mxGeometry x="2710" y="190" width="60" height="30" as="geometry" />
        </mxCell>
        <mxCell id="ckZQzvzNnewIk4Tqqs-Q-313" value="True" style="text;strokeColor=none;align=center;fillColor=none;html=1;verticalAlign=middle;whiteSpace=wrap;rounded=0;" parent="1" vertex="1">
          <mxGeometry x="2600" y="250" width="60" height="30" as="geometry" />
        </mxCell>
        <mxCell id="ckZQzvzNnewIk4Tqqs-Q-316" value="CUSTOMER&#39;S DASHBOARD &lt;br&gt;(Website and Android)" style="text;strokeColor=#82b366;align=center;fillColor=#d5e8d4;html=1;verticalAlign=middle;whiteSpace=wrap;rounded=1;fillStyle=solid;glass=1;shadow=1;fontStyle=3;fontSize=18;" parent="1" vertex="1">
          <mxGeometry x="4032.5" y="-285" width="323.75" height="60" as="geometry" />
        </mxCell>
        <mxCell id="VGD8lqs-76YzBRC_-Ija-3" value="" style="edgeStyle=orthogonalEdgeStyle;rounded=0;orthogonalLoop=1;jettySize=auto;html=1;" edge="1" parent="1" source="VGD8lqs-76YzBRC_-Ija-1" target="VGD8lqs-76YzBRC_-Ija-2">
          <mxGeometry relative="1" as="geometry" />
        </mxCell>
        <mxCell id="VGD8lqs-76YzBRC_-Ija-1" value="START" style="strokeWidth=2;html=1;shape=mxgraph.flowchart.terminator;whiteSpace=wrap;" vertex="1" parent="1">
          <mxGeometry x="4133" y="-187.5" width="100" height="50" as="geometry" />
        </mxCell>
        <mxCell id="VGD8lqs-76YzBRC_-Ija-15" style="edgeStyle=orthogonalEdgeStyle;rounded=0;orthogonalLoop=1;jettySize=auto;html=1;exitX=0;exitY=0.5;exitDx=0;exitDy=0;entryX=0.5;entryY=0;entryDx=0;entryDy=0;entryPerimeter=0;" edge="1" parent="1" source="VGD8lqs-76YzBRC_-Ija-2" target="VGD8lqs-76YzBRC_-Ija-14">
          <mxGeometry relative="1" as="geometry" />
        </mxCell>
        <mxCell id="VGD8lqs-76YzBRC_-Ija-22" style="edgeStyle=orthogonalEdgeStyle;rounded=0;orthogonalLoop=1;jettySize=auto;html=1;exitX=1;exitY=0.5;exitDx=0;exitDy=0;entryX=0.5;entryY=0;entryDx=0;entryDy=0;entryPerimeter=0;" edge="1" parent="1" source="VGD8lqs-76YzBRC_-Ija-2" target="VGD8lqs-76YzBRC_-Ija-21">
          <mxGeometry relative="1" as="geometry" />
        </mxCell>
        <mxCell id="VGD8lqs-76YzBRC_-Ija-25" style="edgeStyle=orthogonalEdgeStyle;rounded=0;orthogonalLoop=1;jettySize=auto;html=1;exitX=0.5;exitY=1;exitDx=0;exitDy=0;entryX=0.5;entryY=0;entryDx=0;entryDy=0;entryPerimeter=0;" edge="1" parent="1" source="VGD8lqs-76YzBRC_-Ija-2" target="VGD8lqs-76YzBRC_-Ija-16">
          <mxGeometry relative="1" as="geometry" />
        </mxCell>
        <mxCell id="VGD8lqs-76YzBRC_-Ija-2" value="Display Customer Dashboard" style="shape=parallelogram;perimeter=parallelogramPerimeter;whiteSpace=wrap;html=1;fixedSize=1;strokeWidth=2;" vertex="1" parent="1">
          <mxGeometry x="4084.5" y="-87.5" width="197" height="25" as="geometry" />
        </mxCell>
        <mxCell id="VGD8lqs-76YzBRC_-Ija-14" value="ORDER" style="verticalLabelPosition=bottom;verticalAlign=top;html=1;shape=mxgraph.flowchart.on-page_reference;" vertex="1" parent="1">
          <mxGeometry x="3820" y="-37.5" width="40" height="40" as="geometry" />
        </mxCell>
        <mxCell id="VGD8lqs-76YzBRC_-Ija-16" value="EXIT" style="verticalLabelPosition=bottom;verticalAlign=top;html=1;shape=mxgraph.flowchart.on-page_reference;" vertex="1" parent="1">
          <mxGeometry x="4165" y="-37.5" width="40" height="40" as="geometry" />
        </mxCell>
        <mxCell id="VGD8lqs-76YzBRC_-Ija-21" value="RESERVE" style="verticalLabelPosition=bottom;verticalAlign=top;html=1;shape=mxgraph.flowchart.on-page_reference;" vertex="1" parent="1">
          <mxGeometry x="4460" y="-37.5" width="40" height="40" as="geometry" />
        </mxCell>
        <mxCell id="VGD8lqs-76YzBRC_-Ija-29" value="" style="edgeStyle=orthogonalEdgeStyle;rounded=0;orthogonalLoop=1;jettySize=auto;html=1;" edge="1" parent="1" source="VGD8lqs-76YzBRC_-Ija-26" target="VGD8lqs-76YzBRC_-Ija-28">
          <mxGeometry relative="1" as="geometry" />
        </mxCell>
        <mxCell id="VGD8lqs-76YzBRC_-Ija-26" value="ORDER" style="verticalLabelPosition=bottom;verticalAlign=top;html=1;shape=mxgraph.flowchart.on-page_reference;" vertex="1" parent="1">
          <mxGeometry x="3780" y="123.75" width="40" height="40" as="geometry" />
        </mxCell>
        <mxCell id="VGD8lqs-76YzBRC_-Ija-31" value="" style="edgeStyle=orthogonalEdgeStyle;rounded=0;orthogonalLoop=1;jettySize=auto;html=1;" edge="1" parent="1" source="VGD8lqs-76YzBRC_-Ija-28" target="VGD8lqs-76YzBRC_-Ija-30">
          <mxGeometry relative="1" as="geometry" />
        </mxCell>
        <mxCell id="VGD8lqs-76YzBRC_-Ija-28" value="Display Products" style="shape=parallelogram;perimeter=parallelogramPerimeter;whiteSpace=wrap;html=1;fixedSize=1;verticalAlign=top;" vertex="1" parent="1">
          <mxGeometry x="3725" y="223.75" width="150" height="30" as="geometry" />
        </mxCell>
        <mxCell id="VGD8lqs-76YzBRC_-Ija-37" value="" style="edgeStyle=orthogonalEdgeStyle;rounded=0;orthogonalLoop=1;jettySize=auto;html=1;" edge="1" parent="1" source="VGD8lqs-76YzBRC_-Ija-30" target="VGD8lqs-76YzBRC_-Ija-36">
          <mxGeometry relative="1" as="geometry" />
        </mxCell>
        <mxCell id="VGD8lqs-76YzBRC_-Ija-30" value="Choose a product" style="shape=parallelogram;perimeter=parallelogramPerimeter;whiteSpace=wrap;html=1;fixedSize=1;verticalAlign=top;" vertex="1" parent="1">
          <mxGeometry x="3725" y="303.75" width="150" height="30" as="geometry" />
        </mxCell>
        <mxCell id="VGD8lqs-76YzBRC_-Ija-39" value="" style="edgeStyle=orthogonalEdgeStyle;rounded=0;orthogonalLoop=1;jettySize=auto;html=1;" edge="1" parent="1" source="VGD8lqs-76YzBRC_-Ija-36" target="VGD8lqs-76YzBRC_-Ija-38">
          <mxGeometry relative="1" as="geometry" />
        </mxCell>
        <mxCell id="VGD8lqs-76YzBRC_-Ija-42" value="" style="edgeStyle=orthogonalEdgeStyle;rounded=0;orthogonalLoop=1;jettySize=auto;html=1;" edge="1" parent="1" source="VGD8lqs-76YzBRC_-Ija-36" target="VGD8lqs-76YzBRC_-Ija-41">
          <mxGeometry relative="1" as="geometry" />
        </mxCell>
        <mxCell id="VGD8lqs-76YzBRC_-Ija-36" value="Is product Available?" style="rhombus;whiteSpace=wrap;html=1;verticalAlign=middle;" vertex="1" parent="1">
          <mxGeometry x="3720" y="383.75" width="160" height="80" as="geometry" />
        </mxCell>
        <mxCell id="VGD8lqs-76YzBRC_-Ija-40" style="edgeStyle=orthogonalEdgeStyle;rounded=0;orthogonalLoop=1;jettySize=auto;html=1;exitX=0.5;exitY=0;exitDx=0;exitDy=0;strokeColor=default;endArrow=none;endFill=0;" edge="1" parent="1" source="VGD8lqs-76YzBRC_-Ija-38">
          <mxGeometry relative="1" as="geometry">
            <mxPoint x="3800" y="263.75" as="targetPoint" />
            <Array as="points">
              <mxPoint x="4000" y="263.75" />
            </Array>
          </mxGeometry>
        </mxCell>
        <mxCell id="VGD8lqs-76YzBRC_-Ija-38" value="Display &quot;Product is unavailable.&quot;" style="shape=parallelogram;perimeter=parallelogramPerimeter;whiteSpace=wrap;html=1;fixedSize=1;" vertex="1" parent="1">
          <mxGeometry x="3920" y="403.75" width="160" height="40" as="geometry" />
        </mxCell>
        <mxCell id="VGD8lqs-76YzBRC_-Ija-44" value="" style="edgeStyle=orthogonalEdgeStyle;rounded=0;orthogonalLoop=1;jettySize=auto;html=1;" edge="1" parent="1" source="VGD8lqs-76YzBRC_-Ija-41" target="VGD8lqs-76YzBRC_-Ija-43">
          <mxGeometry relative="1" as="geometry" />
        </mxCell>
        <mxCell id="VGD8lqs-76YzBRC_-Ija-41" value="Input delivery address" style="shape=parallelogram;perimeter=parallelogramPerimeter;whiteSpace=wrap;html=1;fixedSize=1;" vertex="1" parent="1">
          <mxGeometry x="3717.5" y="513.75" width="165" height="30" as="geometry" />
        </mxCell>
        <mxCell id="VGD8lqs-76YzBRC_-Ija-45" style="edgeStyle=orthogonalEdgeStyle;rounded=0;orthogonalLoop=1;jettySize=auto;html=1;exitX=1;exitY=0.5;exitDx=0;exitDy=0;endArrow=none;endFill=0;" edge="1" parent="1" source="VGD8lqs-76YzBRC_-Ija-43">
          <mxGeometry relative="1" as="geometry">
            <mxPoint x="3800" y="473.75" as="targetPoint" />
            <Array as="points">
              <mxPoint x="3930" y="638.75" />
              <mxPoint x="3930" y="483.75" />
              <mxPoint x="3931" y="473.75" />
            </Array>
          </mxGeometry>
        </mxCell>
        <mxCell id="VGD8lqs-76YzBRC_-Ija-75" style="edgeStyle=orthogonalEdgeStyle;rounded=0;orthogonalLoop=1;jettySize=auto;html=1;exitX=0.5;exitY=1;exitDx=0;exitDy=0;" edge="1" parent="1" source="VGD8lqs-76YzBRC_-Ija-43" target="VGD8lqs-76YzBRC_-Ija-50">
          <mxGeometry relative="1" as="geometry" />
        </mxCell>
        <mxCell id="VGD8lqs-76YzBRC_-Ija-43" value="Valid Address?" style="rhombus;whiteSpace=wrap;html=1;" vertex="1" parent="1">
          <mxGeometry x="3725" y="598.75" width="150" height="80" as="geometry" />
        </mxCell>
        <mxCell id="VGD8lqs-76YzBRC_-Ija-53" value="" style="edgeStyle=orthogonalEdgeStyle;rounded=0;orthogonalLoop=1;jettySize=auto;html=1;" edge="1" parent="1" source="VGD8lqs-76YzBRC_-Ija-50" target="VGD8lqs-76YzBRC_-Ija-52">
          <mxGeometry relative="1" as="geometry" />
        </mxCell>
        <mxCell id="VGD8lqs-76YzBRC_-Ija-50" value="Send Details to Customer Via SMS" style="whiteSpace=wrap;html=1;" vertex="1" parent="1">
          <mxGeometry x="3740" y="893.75" width="120" height="50" as="geometry" />
        </mxCell>
        <mxCell id="VGD8lqs-76YzBRC_-Ija-56" style="edgeStyle=orthogonalEdgeStyle;rounded=0;orthogonalLoop=1;jettySize=auto;html=1;exitX=1;exitY=0.5;exitDx=0;exitDy=0;endArrow=none;endFill=0;" edge="1" parent="1" source="VGD8lqs-76YzBRC_-Ija-52">
          <mxGeometry relative="1" as="geometry">
            <mxPoint x="3800" y="843.75" as="targetPoint" />
            <Array as="points">
              <mxPoint x="3960" y="1048.75" />
              <mxPoint x="3960" y="843.75" />
            </Array>
          </mxGeometry>
        </mxCell>
        <mxCell id="VGD8lqs-76YzBRC_-Ija-58" value="" style="edgeStyle=orthogonalEdgeStyle;rounded=0;orthogonalLoop=1;jettySize=auto;html=1;" edge="1" parent="1" source="VGD8lqs-76YzBRC_-Ija-52" target="VGD8lqs-76YzBRC_-Ija-57">
          <mxGeometry relative="1" as="geometry" />
        </mxCell>
        <mxCell id="VGD8lqs-76YzBRC_-Ija-52" value="Product in process?" style="rhombus;whiteSpace=wrap;html=1;" vertex="1" parent="1">
          <mxGeometry x="3705" y="1008.75" width="190" height="80" as="geometry" />
        </mxCell>
        <mxCell id="VGD8lqs-76YzBRC_-Ija-59" style="edgeStyle=orthogonalEdgeStyle;rounded=0;orthogonalLoop=1;jettySize=auto;html=1;exitX=0;exitY=0.5;exitDx=0;exitDy=0;endArrow=none;endFill=0;" edge="1" parent="1" source="VGD8lqs-76YzBRC_-Ija-57">
          <mxGeometry relative="1" as="geometry">
            <mxPoint x="3800" y="983.75" as="targetPoint" />
            <Array as="points">
              <mxPoint x="3570" y="1208.75" />
              <mxPoint x="3570" y="983.75" />
            </Array>
          </mxGeometry>
        </mxCell>
        <mxCell id="VGD8lqs-76YzBRC_-Ija-61" value="" style="edgeStyle=orthogonalEdgeStyle;rounded=0;orthogonalLoop=1;jettySize=auto;html=1;" edge="1" parent="1" source="VGD8lqs-76YzBRC_-Ija-57" target="VGD8lqs-76YzBRC_-Ija-60">
          <mxGeometry relative="1" as="geometry" />
        </mxCell>
        <mxCell id="VGD8lqs-76YzBRC_-Ija-57" value="Product Delivered?" style="rhombus;whiteSpace=wrap;html=1;" vertex="1" parent="1">
          <mxGeometry x="3710" y="1168.75" width="180" height="80" as="geometry" />
        </mxCell>
        <mxCell id="VGD8lqs-76YzBRC_-Ija-64" style="edgeStyle=orthogonalEdgeStyle;rounded=0;orthogonalLoop=1;jettySize=auto;html=1;exitX=0.5;exitY=1;exitDx=0;exitDy=0;entryX=0.5;entryY=0;entryDx=0;entryDy=0;entryPerimeter=0;" edge="1" parent="1" source="VGD8lqs-76YzBRC_-Ija-60" target="VGD8lqs-76YzBRC_-Ija-62">
          <mxGeometry relative="1" as="geometry" />
        </mxCell>
        <mxCell id="VGD8lqs-76YzBRC_-Ija-60" value="Send Delivered Notification Via SMS" style="whiteSpace=wrap;html=1;" vertex="1" parent="1">
          <mxGeometry x="3740" y="1338.75" width="120" height="60" as="geometry" />
        </mxCell>
        <mxCell id="VGD8lqs-76YzBRC_-Ija-62" value="START" style="strokeWidth=2;html=1;shape=mxgraph.flowchart.terminator;whiteSpace=wrap;" vertex="1" parent="1">
          <mxGeometry x="4090" y="1453.75" width="100" height="50" as="geometry" />
        </mxCell>
        <mxCell id="VGD8lqs-76YzBRC_-Ija-66" style="edgeStyle=orthogonalEdgeStyle;rounded=0;orthogonalLoop=1;jettySize=auto;html=1;exitX=0.5;exitY=1;exitDx=0;exitDy=0;exitPerimeter=0;" edge="1" parent="1" source="VGD8lqs-76YzBRC_-Ija-65" target="VGD8lqs-76YzBRC_-Ija-62">
          <mxGeometry relative="1" as="geometry" />
        </mxCell>
        <mxCell id="VGD8lqs-76YzBRC_-Ija-65" value="EXIT" style="verticalLabelPosition=bottom;verticalAlign=top;html=1;shape=mxgraph.flowchart.on-page_reference;" vertex="1" parent="1">
          <mxGeometry x="4213" y="1298.75" width="40" height="40" as="geometry" />
        </mxCell>
        <mxCell id="VGD8lqs-76YzBRC_-Ija-69" value="" style="edgeStyle=orthogonalEdgeStyle;rounded=0;orthogonalLoop=1;jettySize=auto;html=1;" edge="1" parent="1" source="VGD8lqs-76YzBRC_-Ija-67" target="VGD8lqs-76YzBRC_-Ija-68">
          <mxGeometry relative="1" as="geometry" />
        </mxCell>
        <mxCell id="VGD8lqs-76YzBRC_-Ija-67" value="RESERVE" style="verticalLabelPosition=bottom;verticalAlign=top;html=1;shape=mxgraph.flowchart.on-page_reference;" vertex="1" parent="1">
          <mxGeometry x="4500" y="123.75" width="40" height="40" as="geometry" />
        </mxCell>
        <mxCell id="VGD8lqs-76YzBRC_-Ija-81" value="" style="edgeStyle=orthogonalEdgeStyle;rounded=0;orthogonalLoop=1;jettySize=auto;html=1;" edge="1" parent="1" source="VGD8lqs-76YzBRC_-Ija-68" target="VGD8lqs-76YzBRC_-Ija-80">
          <mxGeometry relative="1" as="geometry" />
        </mxCell>
        <mxCell id="VGD8lqs-76YzBRC_-Ija-68" value="Display live tables and current reservations" style="shape=parallelogram;perimeter=parallelogramPerimeter;whiteSpace=wrap;html=1;fixedSize=1;verticalAlign=middle;" vertex="1" parent="1">
          <mxGeometry x="4420" y="223.75" width="200" height="50" as="geometry" />
        </mxCell>
        <mxCell id="VGD8lqs-76YzBRC_-Ija-70" value="False" style="text;strokeColor=none;align=center;fillColor=none;html=1;verticalAlign=middle;whiteSpace=wrap;rounded=0;" vertex="1" parent="1">
          <mxGeometry x="3870" y="393.75" width="60" height="30" as="geometry" />
        </mxCell>
        <mxCell id="VGD8lqs-76YzBRC_-Ija-71" value="True" style="text;strokeColor=none;align=center;fillColor=none;html=1;verticalAlign=middle;whiteSpace=wrap;rounded=0;" vertex="1" parent="1">
          <mxGeometry x="3740" y="463.75" width="60" height="30" as="geometry" />
        </mxCell>
        <mxCell id="VGD8lqs-76YzBRC_-Ija-72" value="False" style="text;strokeColor=none;align=center;fillColor=none;html=1;verticalAlign=middle;whiteSpace=wrap;rounded=0;" vertex="1" parent="1">
          <mxGeometry x="3870" y="603.75" width="60" height="30" as="geometry" />
        </mxCell>
        <mxCell id="VGD8lqs-76YzBRC_-Ija-73" value="True" style="text;strokeColor=none;align=center;fillColor=none;html=1;verticalAlign=middle;whiteSpace=wrap;rounded=0;" vertex="1" parent="1">
          <mxGeometry x="3740" y="678.75" width="60" height="30" as="geometry" />
        </mxCell>
        <mxCell id="VGD8lqs-76YzBRC_-Ija-77" value="True" style="text;strokeColor=none;align=center;fillColor=none;html=1;verticalAlign=middle;whiteSpace=wrap;rounded=0;" vertex="1" parent="1">
          <mxGeometry x="3740" y="1083.75" width="60" height="30" as="geometry" />
        </mxCell>
        <mxCell id="VGD8lqs-76YzBRC_-Ija-78" value="False" style="text;strokeColor=none;align=center;fillColor=none;html=1;verticalAlign=middle;whiteSpace=wrap;rounded=0;" vertex="1" parent="1">
          <mxGeometry x="3650" y="1173.75" width="60" height="30" as="geometry" />
        </mxCell>
        <mxCell id="VGD8lqs-76YzBRC_-Ija-79" value="True" style="text;strokeColor=none;align=center;fillColor=none;html=1;verticalAlign=middle;whiteSpace=wrap;rounded=0;" vertex="1" parent="1">
          <mxGeometry x="3800" y="1248.75" width="60" height="30" as="geometry" />
        </mxCell>
        <mxCell id="VGD8lqs-76YzBRC_-Ija-83" value="" style="edgeStyle=orthogonalEdgeStyle;rounded=0;orthogonalLoop=1;jettySize=auto;html=1;" edge="1" parent="1" source="VGD8lqs-76YzBRC_-Ija-80" target="VGD8lqs-76YzBRC_-Ija-82">
          <mxGeometry relative="1" as="geometry" />
        </mxCell>
        <mxCell id="VGD8lqs-76YzBRC_-Ija-80" value="Choose and Reserve a Table" style="shape=parallelogram;perimeter=parallelogramPerimeter;whiteSpace=wrap;html=1;fixedSize=1;verticalAlign=middle;" vertex="1" parent="1">
          <mxGeometry x="4420" y="353.75" width="200" height="50" as="geometry" />
        </mxCell>
        <mxCell id="VGD8lqs-76YzBRC_-Ija-84" style="edgeStyle=orthogonalEdgeStyle;rounded=0;orthogonalLoop=1;jettySize=auto;html=1;exitX=1;exitY=0.5;exitDx=0;exitDy=0;endArrow=none;endFill=0;" edge="1" parent="1" source="VGD8lqs-76YzBRC_-Ija-82">
          <mxGeometry relative="1" as="geometry">
            <mxPoint x="4520" y="303.75" as="targetPoint" />
            <Array as="points">
              <mxPoint x="4670" y="503.75" />
              <mxPoint x="4670" y="303.75" />
            </Array>
          </mxGeometry>
        </mxCell>
        <mxCell id="VGD8lqs-76YzBRC_-Ija-88" value="" style="edgeStyle=orthogonalEdgeStyle;rounded=0;orthogonalLoop=1;jettySize=auto;html=1;" edge="1" parent="1" source="VGD8lqs-76YzBRC_-Ija-82" target="VGD8lqs-76YzBRC_-Ija-87">
          <mxGeometry relative="1" as="geometry" />
        </mxCell>
        <mxCell id="VGD8lqs-76YzBRC_-Ija-82" value="Is Table Avaialbale?" style="rhombus;whiteSpace=wrap;html=1;" vertex="1" parent="1">
          <mxGeometry x="4430" y="463.75" width="180" height="80" as="geometry" />
        </mxCell>
        <mxCell id="VGD8lqs-76YzBRC_-Ija-90" value="" style="edgeStyle=orthogonalEdgeStyle;rounded=0;orthogonalLoop=1;jettySize=auto;html=1;" edge="1" parent="1" source="VGD8lqs-76YzBRC_-Ija-87" target="VGD8lqs-76YzBRC_-Ija-89">
          <mxGeometry relative="1" as="geometry" />
        </mxCell>
        <mxCell id="VGD8lqs-76YzBRC_-Ija-92" value="" style="edgeStyle=orthogonalEdgeStyle;rounded=0;orthogonalLoop=1;jettySize=auto;html=1;" edge="1" parent="1" source="VGD8lqs-76YzBRC_-Ija-87" target="VGD8lqs-76YzBRC_-Ija-91">
          <mxGeometry relative="1" as="geometry" />
        </mxCell>
        <mxCell id="VGD8lqs-76YzBRC_-Ija-87" value="Automate Time and Date?" style="rhombus;whiteSpace=wrap;html=1;" vertex="1" parent="1">
          <mxGeometry x="4415" y="613.75" width="210" height="80" as="geometry" />
        </mxCell>
        <mxCell id="VGD8lqs-76YzBRC_-Ija-93" style="edgeStyle=orthogonalEdgeStyle;rounded=0;orthogonalLoop=1;jettySize=auto;html=1;exitX=0.5;exitY=1;exitDx=0;exitDy=0;" edge="1" parent="1" source="VGD8lqs-76YzBRC_-Ija-89" target="VGD8lqs-76YzBRC_-Ija-91">
          <mxGeometry relative="1" as="geometry" />
        </mxCell>
        <mxCell id="VGD8lqs-76YzBRC_-Ija-89" value="Input desired Time and Date" style="shape=parallelogram;perimeter=parallelogramPerimeter;whiteSpace=wrap;html=1;fixedSize=1;" vertex="1" parent="1">
          <mxGeometry x="4178.13" y="633.75" width="192.5" height="40" as="geometry" />
        </mxCell>
        <mxCell id="VGD8lqs-76YzBRC_-Ija-94" style="edgeStyle=orthogonalEdgeStyle;rounded=0;orthogonalLoop=1;jettySize=auto;html=1;exitX=1;exitY=0.5;exitDx=0;exitDy=0;endArrow=none;endFill=0;" edge="1" parent="1" source="VGD8lqs-76YzBRC_-Ija-91">
          <mxGeometry relative="1" as="geometry">
            <mxPoint x="4520" y="573.75" as="targetPoint" />
            <Array as="points">
              <mxPoint x="4650" y="803.75" />
              <mxPoint x="4650" y="573.75" />
            </Array>
          </mxGeometry>
        </mxCell>
        <mxCell id="VGD8lqs-76YzBRC_-Ija-96" value="" style="edgeStyle=orthogonalEdgeStyle;rounded=0;orthogonalLoop=1;jettySize=auto;html=1;" edge="1" parent="1" source="VGD8lqs-76YzBRC_-Ija-91" target="VGD8lqs-76YzBRC_-Ija-95">
          <mxGeometry relative="1" as="geometry" />
        </mxCell>
        <mxCell id="VGD8lqs-76YzBRC_-Ija-91" value="Confirm Time and Date?" style="rhombus;whiteSpace=wrap;html=1;" vertex="1" parent="1">
          <mxGeometry x="4405" y="763.75" width="230" height="80" as="geometry" />
        </mxCell>
        <mxCell id="VGD8lqs-76YzBRC_-Ija-97" style="edgeStyle=orthogonalEdgeStyle;rounded=0;orthogonalLoop=1;jettySize=auto;html=1;exitX=0.5;exitY=1;exitDx=0;exitDy=0;" edge="1" parent="1" source="VGD8lqs-76YzBRC_-Ija-95" target="VGD8lqs-76YzBRC_-Ija-62">
          <mxGeometry relative="1" as="geometry" />
        </mxCell>
        <mxCell id="VGD8lqs-76YzBRC_-Ija-95" value="Send Reservation Details Via SMS" style="whiteSpace=wrap;html=1;" vertex="1" parent="1">
          <mxGeometry x="4460" y="893.75" width="120" height="50" as="geometry" />
        </mxCell>
        <mxCell id="VGD8lqs-76YzBRC_-Ija-99" value="COFFEE SHOP ADMIN DASHBOARD" style="text;strokeColor=#82b366;align=center;fillColor=#d5e8d4;html=1;verticalAlign=middle;whiteSpace=wrap;rounded=1;fillStyle=solid;glass=1;shadow=1;fontStyle=3;fontSize=18;" vertex="1" parent="1">
          <mxGeometry x="871.23" y="1540" width="323.75" height="40" as="geometry" />
        </mxCell>
        <mxCell id="VGD8lqs-76YzBRC_-Ija-104" style="edgeStyle=orthogonalEdgeStyle;rounded=0;orthogonalLoop=1;jettySize=auto;html=1;exitX=0;exitY=0.5;exitDx=0;exitDy=0;exitPerimeter=0;entryX=0.5;entryY=0;entryDx=0;entryDy=0;entryPerimeter=0;" edge="1" parent="1" source="VGD8lqs-76YzBRC_-Ija-100" target="VGD8lqs-76YzBRC_-Ija-103">
          <mxGeometry relative="1" as="geometry" />
        </mxCell>
        <mxCell id="VGD8lqs-76YzBRC_-Ija-106" style="edgeStyle=orthogonalEdgeStyle;rounded=0;orthogonalLoop=1;jettySize=auto;html=1;exitX=1;exitY=0.5;exitDx=0;exitDy=0;exitPerimeter=0;" edge="1" parent="1" source="VGD8lqs-76YzBRC_-Ija-100" target="VGD8lqs-76YzBRC_-Ija-105">
          <mxGeometry relative="1" as="geometry" />
        </mxCell>
        <mxCell id="VGD8lqs-76YzBRC_-Ija-110" style="edgeStyle=orthogonalEdgeStyle;rounded=0;orthogonalLoop=1;jettySize=auto;html=1;exitX=1;exitY=0.5;exitDx=0;exitDy=0;exitPerimeter=0;" edge="1" parent="1" source="VGD8lqs-76YzBRC_-Ija-100" target="VGD8lqs-76YzBRC_-Ija-109">
          <mxGeometry relative="1" as="geometry" />
        </mxCell>
        <mxCell id="VGD8lqs-76YzBRC_-Ija-111" style="edgeStyle=orthogonalEdgeStyle;rounded=0;orthogonalLoop=1;jettySize=auto;html=1;exitX=0;exitY=0.5;exitDx=0;exitDy=0;exitPerimeter=0;" edge="1" parent="1" source="VGD8lqs-76YzBRC_-Ija-100" target="VGD8lqs-76YzBRC_-Ija-107">
          <mxGeometry relative="1" as="geometry" />
        </mxCell>
        <mxCell id="VGD8lqs-76YzBRC_-Ija-100" value="START" style="strokeWidth=2;html=1;shape=mxgraph.flowchart.terminator;whiteSpace=wrap;" vertex="1" parent="1">
          <mxGeometry x="1018.13" y="1600" width="63.75" height="50" as="geometry" />
        </mxCell>
        <mxCell id="VGD8lqs-76YzBRC_-Ija-103" value="STOCKS" style="verticalLabelPosition=bottom;verticalAlign=top;html=1;shape=mxgraph.flowchart.on-page_reference;" vertex="1" parent="1">
          <mxGeometry x="590" y="1730" width="60" height="60" as="geometry" />
        </mxCell>
        <mxCell id="VGD8lqs-76YzBRC_-Ija-105" value="STAFFS" style="verticalLabelPosition=bottom;verticalAlign=top;html=1;shape=mxgraph.flowchart.on-page_reference;" vertex="1" parent="1">
          <mxGeometry x="1151.27" y="1730" width="60" height="60" as="geometry" />
        </mxCell>
        <mxCell id="VGD8lqs-76YzBRC_-Ija-107" value="ANALYTICS" style="verticalLabelPosition=bottom;verticalAlign=top;html=1;shape=mxgraph.flowchart.on-page_reference;" vertex="1" parent="1">
          <mxGeometry x="863.11" y="1730" width="60" height="60" as="geometry" />
        </mxCell>
        <mxCell id="VGD8lqs-76YzBRC_-Ija-109" value="LOGOUT" style="verticalLabelPosition=bottom;verticalAlign=top;html=1;shape=mxgraph.flowchart.on-page_reference;" vertex="1" parent="1">
          <mxGeometry x="1364.38" y="1730" width="60" height="60" as="geometry" />
        </mxCell>
        <mxCell id="VGD8lqs-76YzBRC_-Ija-114" value="" style="edgeStyle=orthogonalEdgeStyle;rounded=0;orthogonalLoop=1;jettySize=auto;html=1;" edge="1" parent="1" source="VGD8lqs-76YzBRC_-Ija-112" target="VGD8lqs-76YzBRC_-Ija-113">
          <mxGeometry relative="1" as="geometry" />
        </mxCell>
        <mxCell id="VGD8lqs-76YzBRC_-Ija-112" value="STOCKS" style="verticalLabelPosition=bottom;verticalAlign=top;html=1;shape=mxgraph.flowchart.on-page_reference;" vertex="1" parent="1">
          <mxGeometry x="590" y="2050" width="60" height="60" as="geometry" />
        </mxCell>
        <mxCell id="VGD8lqs-76YzBRC_-Ija-116" value="" style="edgeStyle=orthogonalEdgeStyle;rounded=0;orthogonalLoop=1;jettySize=auto;html=1;" edge="1" parent="1" source="VGD8lqs-76YzBRC_-Ija-113" target="VGD8lqs-76YzBRC_-Ija-115">
          <mxGeometry relative="1" as="geometry" />
        </mxCell>
        <mxCell id="VGD8lqs-76YzBRC_-Ija-113" value="Click STOCKS to display stocks" style="shape=parallelogram;perimeter=parallelogramPerimeter;whiteSpace=wrap;html=1;fixedSize=1;verticalAlign=middle;" vertex="1" parent="1">
          <mxGeometry x="511.89" y="2190" width="217.5" height="40" as="geometry" />
        </mxCell>
        <mxCell id="VGD8lqs-76YzBRC_-Ija-118" value="" style="edgeStyle=orthogonalEdgeStyle;rounded=0;orthogonalLoop=1;jettySize=auto;html=1;" edge="1" parent="1" source="VGD8lqs-76YzBRC_-Ija-115" target="VGD8lqs-76YzBRC_-Ija-117">
          <mxGeometry relative="1" as="geometry" />
        </mxCell>
        <mxCell id="VGD8lqs-76YzBRC_-Ija-115" value="Navigate Categories" style="shape=parallelogram;perimeter=parallelogramPerimeter;whiteSpace=wrap;html=1;fixedSize=1;verticalAlign=middle;" vertex="1" parent="1">
          <mxGeometry x="542.5" y="2310" width="155" height="30" as="geometry" />
        </mxCell>
        <mxCell id="VGD8lqs-76YzBRC_-Ija-120" value="" style="edgeStyle=orthogonalEdgeStyle;rounded=0;orthogonalLoop=1;jettySize=auto;html=1;" edge="1" parent="1" source="VGD8lqs-76YzBRC_-Ija-117" target="VGD8lqs-76YzBRC_-Ija-119">
          <mxGeometry relative="1" as="geometry" />
        </mxCell>
        <mxCell id="VGD8lqs-76YzBRC_-Ija-122" value="" style="edgeStyle=orthogonalEdgeStyle;rounded=0;orthogonalLoop=1;jettySize=auto;html=1;" edge="1" parent="1" source="VGD8lqs-76YzBRC_-Ija-117" target="VGD8lqs-76YzBRC_-Ija-121">
          <mxGeometry relative="1" as="geometry" />
        </mxCell>
        <mxCell id="VGD8lqs-76YzBRC_-Ija-117" value="Add or Delete products?" style="rhombus;whiteSpace=wrap;html=1;" vertex="1" parent="1">
          <mxGeometry x="538.13" y="2395" width="165" height="80" as="geometry" />
        </mxCell>
        <mxCell id="VGD8lqs-76YzBRC_-Ija-144" value="" style="edgeStyle=orthogonalEdgeStyle;rounded=0;orthogonalLoop=1;jettySize=auto;html=1;" edge="1" parent="1" source="VGD8lqs-76YzBRC_-Ija-119" target="VGD8lqs-76YzBRC_-Ija-143">
          <mxGeometry relative="1" as="geometry" />
        </mxCell>
        <mxCell id="VGD8lqs-76YzBRC_-Ija-119" value="Choose a product" style="shape=parallelogram;perimeter=parallelogramPerimeter;whiteSpace=wrap;html=1;fixedSize=1;" vertex="1" parent="1">
          <mxGeometry x="740" y="2422.5" width="144.37" height="25" as="geometry" />
        </mxCell>
        <mxCell id="VGD8lqs-76YzBRC_-Ija-124" value="" style="edgeStyle=orthogonalEdgeStyle;rounded=0;orthogonalLoop=1;jettySize=auto;html=1;" edge="1" parent="1" source="VGD8lqs-76YzBRC_-Ija-121" target="VGD8lqs-76YzBRC_-Ija-123">
          <mxGeometry relative="1" as="geometry" />
        </mxCell>
        <mxCell id="VGD8lqs-76YzBRC_-Ija-121" value="Input product Details" style="shape=parallelogram;perimeter=parallelogramPerimeter;whiteSpace=wrap;html=1;fixedSize=1;" vertex="1" parent="1">
          <mxGeometry x="544.69" y="2540" width="150.63" height="25" as="geometry" />
        </mxCell>
        <mxCell id="VGD8lqs-76YzBRC_-Ija-126" style="edgeStyle=orthogonalEdgeStyle;rounded=0;orthogonalLoop=1;jettySize=auto;html=1;exitX=0;exitY=0.5;exitDx=0;exitDy=0;endArrow=none;endFill=0;" edge="1" parent="1" source="VGD8lqs-76YzBRC_-Ija-123">
          <mxGeometry relative="1" as="geometry">
            <mxPoint x="620" y="2500" as="targetPoint" />
            <Array as="points">
              <mxPoint x="470" y="2657" />
              <mxPoint x="470" y="2500" />
            </Array>
          </mxGeometry>
        </mxCell>
        <mxCell id="VGD8lqs-76YzBRC_-Ija-128" value="" style="edgeStyle=orthogonalEdgeStyle;rounded=0;orthogonalLoop=1;jettySize=auto;html=1;" edge="1" parent="1" source="VGD8lqs-76YzBRC_-Ija-123" target="VGD8lqs-76YzBRC_-Ija-127">
          <mxGeometry relative="1" as="geometry" />
        </mxCell>
        <mxCell id="VGD8lqs-76YzBRC_-Ija-123" value="Confirm?" style="rhombus;whiteSpace=wrap;html=1;" vertex="1" parent="1">
          <mxGeometry x="580.0050000000001" y="2617.5" width="80" height="80" as="geometry" />
        </mxCell>
        <mxCell id="VGD8lqs-76YzBRC_-Ija-130" value="" style="edgeStyle=orthogonalEdgeStyle;rounded=0;orthogonalLoop=1;jettySize=auto;html=1;" edge="1" parent="1" source="VGD8lqs-76YzBRC_-Ija-127" target="VGD8lqs-76YzBRC_-Ija-129">
          <mxGeometry relative="1" as="geometry" />
        </mxCell>
        <mxCell id="VGD8lqs-76YzBRC_-Ija-127" value="Display &quot;Products Added!&quot;" style="shape=parallelogram;perimeter=parallelogramPerimeter;whiteSpace=wrap;html=1;fixedSize=1;" vertex="1" parent="1">
          <mxGeometry x="525.63" y="2750" width="190.01" height="32.5" as="geometry" />
        </mxCell>
        <mxCell id="VGD8lqs-76YzBRC_-Ija-133" style="edgeStyle=orthogonalEdgeStyle;rounded=0;orthogonalLoop=1;jettySize=auto;html=1;exitX=0;exitY=0.5;exitDx=0;exitDy=0;endArrow=none;endFill=0;" edge="1" parent="1" source="VGD8lqs-76YzBRC_-Ija-129">
          <mxGeometry relative="1" as="geometry">
            <mxPoint x="620" y="2370" as="targetPoint" />
            <Array as="points">
              <mxPoint x="380" y="2855" />
              <mxPoint x="380" y="2370" />
            </Array>
          </mxGeometry>
        </mxCell>
        <mxCell id="VGD8lqs-76YzBRC_-Ija-135" value="" style="edgeStyle=orthogonalEdgeStyle;rounded=0;orthogonalLoop=1;jettySize=auto;html=1;" edge="1" parent="1" source="VGD8lqs-76YzBRC_-Ija-129" target="VGD8lqs-76YzBRC_-Ija-134">
          <mxGeometry relative="1" as="geometry" />
        </mxCell>
        <mxCell id="VGD8lqs-76YzBRC_-Ija-129" value="Done?" style="rhombus;whiteSpace=wrap;html=1;" vertex="1" parent="1">
          <mxGeometry x="549.52" y="2830" width="140.96" height="50" as="geometry" />
        </mxCell>
        <mxCell id="VGD8lqs-76YzBRC_-Ija-137" style="edgeStyle=orthogonalEdgeStyle;rounded=0;orthogonalLoop=1;jettySize=auto;html=1;exitX=0.5;exitY=1;exitDx=0;exitDy=0;" edge="1" parent="1" source="VGD8lqs-76YzBRC_-Ija-134" target="VGD8lqs-76YzBRC_-Ija-136">
          <mxGeometry relative="1" as="geometry" />
        </mxCell>
        <mxCell id="VGD8lqs-76YzBRC_-Ija-134" value="Modifications Applied!" style="shape=parallelogram;perimeter=parallelogramPerimeter;whiteSpace=wrap;html=1;fixedSize=1;" vertex="1" parent="1">
          <mxGeometry x="530" y="2930" width="180" height="25" as="geometry" />
        </mxCell>
        <mxCell id="VGD8lqs-76YzBRC_-Ija-136" value="END" style="strokeWidth=2;html=1;shape=mxgraph.flowchart.terminator;whiteSpace=wrap;" vertex="1" parent="1">
          <mxGeometry x="872.5" y="3040" width="65" height="40" as="geometry" />
        </mxCell>
        <mxCell id="VGD8lqs-76YzBRC_-Ija-140" value="" style="edgeStyle=orthogonalEdgeStyle;rounded=0;orthogonalLoop=1;jettySize=auto;html=1;" edge="1" parent="1" source="VGD8lqs-76YzBRC_-Ija-138" target="VGD8lqs-76YzBRC_-Ija-139">
          <mxGeometry relative="1" as="geometry" />
        </mxCell>
        <mxCell id="VGD8lqs-76YzBRC_-Ija-138" value="ANALYTICS" style="verticalLabelPosition=bottom;verticalAlign=top;html=1;shape=mxgraph.flowchart.on-page_reference;" vertex="1" parent="1">
          <mxGeometry x="1104.98" y="2050" width="60" height="60" as="geometry" />
        </mxCell>
        <mxCell id="VGD8lqs-76YzBRC_-Ija-142" value="" style="edgeStyle=orthogonalEdgeStyle;rounded=0;orthogonalLoop=1;jettySize=auto;html=1;" edge="1" parent="1" source="VGD8lqs-76YzBRC_-Ija-139" target="VGD8lqs-76YzBRC_-Ija-141">
          <mxGeometry relative="1" as="geometry" />
        </mxCell>
        <mxCell id="VGD8lqs-76YzBRC_-Ija-139" value="Click ANALYTICS to Display Analytics" style="shape=parallelogram;perimeter=parallelogramPerimeter;whiteSpace=wrap;html=1;fixedSize=1;verticalAlign=middle;" vertex="1" parent="1">
          <mxGeometry x="1014.98" y="2190" width="240" height="40" as="geometry" />
        </mxCell>
        <mxCell id="VGD8lqs-76YzBRC_-Ija-150" value="" style="edgeStyle=orthogonalEdgeStyle;rounded=0;orthogonalLoop=1;jettySize=auto;html=1;" edge="1" parent="1" source="VGD8lqs-76YzBRC_-Ija-141" target="VGD8lqs-76YzBRC_-Ija-149">
          <mxGeometry relative="1" as="geometry" />
        </mxCell>
        <mxCell id="VGD8lqs-76YzBRC_-Ija-141" value="Click GENERATE" style="shape=parallelogram;perimeter=parallelogramPerimeter;whiteSpace=wrap;html=1;fixedSize=1;" vertex="1" parent="1">
          <mxGeometry x="1068.42" y="2260" width="133.11" height="30" as="geometry" />
        </mxCell>
        <mxCell id="VGD8lqs-76YzBRC_-Ija-146" value="" style="edgeStyle=orthogonalEdgeStyle;rounded=0;orthogonalLoop=1;jettySize=auto;html=1;" edge="1" parent="1" source="VGD8lqs-76YzBRC_-Ija-143" target="VGD8lqs-76YzBRC_-Ija-145">
          <mxGeometry relative="1" as="geometry" />
        </mxCell>
        <mxCell id="VGD8lqs-76YzBRC_-Ija-147" style="edgeStyle=orthogonalEdgeStyle;rounded=0;orthogonalLoop=1;jettySize=auto;html=1;exitX=0.957;exitY=0.52;exitDx=0;exitDy=0;endArrow=none;endFill=0;exitPerimeter=0;" edge="1" parent="1">
          <mxGeometry relative="1" as="geometry">
            <mxPoint x="718" y="2434" as="targetPoint" />
            <mxPoint x="880.2273" y="2527.6" as="sourcePoint" />
            <Array as="points">
              <mxPoint x="885" y="2528" />
              <mxPoint x="885" y="2529" />
              <mxPoint x="930" y="2529" />
              <mxPoint x="930" y="2390" />
              <mxPoint x="718" y="2390" />
            </Array>
          </mxGeometry>
        </mxCell>
        <mxCell id="VGD8lqs-76YzBRC_-Ija-143" value="Confirm Deletion?" style="rhombus;whiteSpace=wrap;html=1;" vertex="1" parent="1">
          <mxGeometry x="737.73" y="2500" width="148.9" height="55" as="geometry" />
        </mxCell>
        <mxCell id="VGD8lqs-76YzBRC_-Ija-148" style="edgeStyle=orthogonalEdgeStyle;rounded=0;orthogonalLoop=1;jettySize=auto;html=1;exitX=0.5;exitY=1;exitDx=0;exitDy=0;" edge="1" parent="1" source="VGD8lqs-76YzBRC_-Ija-145" target="VGD8lqs-76YzBRC_-Ija-136">
          <mxGeometry relative="1" as="geometry" />
        </mxCell>
        <mxCell id="VGD8lqs-76YzBRC_-Ija-145" value="Product/s Deleted" style="shape=parallelogram;perimeter=parallelogramPerimeter;whiteSpace=wrap;html=1;fixedSize=1;" vertex="1" parent="1">
          <mxGeometry x="736.1" y="2643.75" width="152.18" height="27.5" as="geometry" />
        </mxCell>
        <mxCell id="VGD8lqs-76YzBRC_-Ija-152" value="" style="edgeStyle=orthogonalEdgeStyle;rounded=0;orthogonalLoop=1;jettySize=auto;html=1;" edge="1" parent="1" source="VGD8lqs-76YzBRC_-Ija-149" target="VGD8lqs-76YzBRC_-Ija-151">
          <mxGeometry relative="1" as="geometry" />
        </mxCell>
        <mxCell id="VGD8lqs-76YzBRC_-Ija-149" value="RETRIEVE Data from Database" style="whiteSpace=wrap;html=1;" vertex="1" parent="1">
          <mxGeometry x="1052.49" y="2335" width="164.98" height="45" as="geometry" />
        </mxCell>
        <mxCell id="VGD8lqs-76YzBRC_-Ija-154" value="" style="edgeStyle=orthogonalEdgeStyle;rounded=0;orthogonalLoop=1;jettySize=auto;html=1;" edge="1" parent="1" source="VGD8lqs-76YzBRC_-Ija-151" target="VGD8lqs-76YzBRC_-Ija-153">
          <mxGeometry relative="1" as="geometry" />
        </mxCell>
        <mxCell id="VGD8lqs-76YzBRC_-Ija-151" value="ANALYSIS" style="whiteSpace=wrap;html=1;" vertex="1" parent="1">
          <mxGeometry x="1074.98" y="2415" width="120" height="35" as="geometry" />
        </mxCell>
        <mxCell id="VGD8lqs-76YzBRC_-Ija-156" value="" style="edgeStyle=orthogonalEdgeStyle;rounded=0;orthogonalLoop=1;jettySize=auto;html=1;" edge="1" parent="1" source="VGD8lqs-76YzBRC_-Ija-153" target="VGD8lqs-76YzBRC_-Ija-155">
          <mxGeometry relative="1" as="geometry" />
        </mxCell>
        <mxCell id="VGD8lqs-76YzBRC_-Ija-153" value="INTERPRETATION" style="whiteSpace=wrap;html=1;" vertex="1" parent="1">
          <mxGeometry x="1074.98" y="2480" width="120" height="35" as="geometry" />
        </mxCell>
        <mxCell id="VGD8lqs-76YzBRC_-Ija-158" value="" style="edgeStyle=orthogonalEdgeStyle;rounded=0;orthogonalLoop=1;jettySize=auto;html=1;" edge="1" parent="1" source="VGD8lqs-76YzBRC_-Ija-155" target="VGD8lqs-76YzBRC_-Ija-157">
          <mxGeometry relative="1" as="geometry" />
        </mxCell>
        <mxCell id="VGD8lqs-76YzBRC_-Ija-160" value="" style="edgeStyle=orthogonalEdgeStyle;rounded=0;orthogonalLoop=1;jettySize=auto;html=1;" edge="1" parent="1" source="VGD8lqs-76YzBRC_-Ija-155" target="VGD8lqs-76YzBRC_-Ija-159">
          <mxGeometry relative="1" as="geometry" />
        </mxCell>
        <mxCell id="VGD8lqs-76YzBRC_-Ija-155" value="Criteria Met?" style="rhombus;whiteSpace=wrap;html=1;" vertex="1" parent="1">
          <mxGeometry x="1077.49" y="2563.75" width="114.98" height="56.25" as="geometry" />
        </mxCell>
        <mxCell id="VGD8lqs-76YzBRC_-Ija-166" style="edgeStyle=orthogonalEdgeStyle;rounded=0;orthogonalLoop=1;jettySize=auto;html=1;exitX=0.5;exitY=1;exitDx=0;exitDy=0;endArrow=none;endFill=0;" edge="1" parent="1">
          <mxGeometry relative="1" as="geometry">
            <mxPoint x="1136" y="2720" as="targetPoint" />
            <mxPoint x="1368.4900000000002" y="2610.9400000000005" as="sourcePoint" />
            <Array as="points">
              <mxPoint x="1368" y="2715" />
              <mxPoint x="1368" y="2820" />
            </Array>
          </mxGeometry>
        </mxCell>
        <mxCell id="VGD8lqs-76YzBRC_-Ija-157" value="Display Analytics and Provide Tips" style="shape=parallelogram;perimeter=parallelogramPerimeter;whiteSpace=wrap;html=1;fixedSize=1;" vertex="1" parent="1">
          <mxGeometry x="1254.98" y="2572.82" width="235.02" height="38.12" as="geometry" />
        </mxCell>
        <mxCell id="VGD8lqs-76YzBRC_-Ija-164" value="" style="edgeStyle=orthogonalEdgeStyle;rounded=0;orthogonalLoop=1;jettySize=auto;html=1;" edge="1" parent="1" source="VGD8lqs-76YzBRC_-Ija-159" target="VGD8lqs-76YzBRC_-Ija-163">
          <mxGeometry relative="1" as="geometry" />
        </mxCell>
        <mxCell id="VGD8lqs-76YzBRC_-Ija-159" value="Display Analytics and Provide a fact" style="shape=parallelogram;perimeter=parallelogramPerimeter;whiteSpace=wrap;html=1;fixedSize=1;" vertex="1" parent="1">
          <mxGeometry x="1018.13" y="2665.63" width="234.98" height="31.87" as="geometry" />
        </mxCell>
        <mxCell id="VGD8lqs-76YzBRC_-Ija-165" style="edgeStyle=orthogonalEdgeStyle;rounded=0;orthogonalLoop=1;jettySize=auto;html=1;exitX=0.5;exitY=1;exitDx=0;exitDy=0;" edge="1" parent="1" source="VGD8lqs-76YzBRC_-Ija-163" target="VGD8lqs-76YzBRC_-Ija-136">
          <mxGeometry relative="1" as="geometry" />
        </mxCell>
        <mxCell id="VGD8lqs-76YzBRC_-Ija-163" value="Click PRINT to get external output" style="shape=parallelogram;perimeter=parallelogramPerimeter;whiteSpace=wrap;html=1;fixedSize=1;" vertex="1" parent="1">
          <mxGeometry x="1027.81" y="2750" width="215.62" height="26.56" as="geometry" />
        </mxCell>
        <mxCell id="VGD8lqs-76YzBRC_-Ija-168" style="edgeStyle=orthogonalEdgeStyle;rounded=0;orthogonalLoop=1;jettySize=auto;html=1;exitX=0.5;exitY=1;exitDx=0;exitDy=0;exitPerimeter=0;" edge="1" parent="1" source="VGD8lqs-76YzBRC_-Ija-167" target="VGD8lqs-76YzBRC_-Ija-136">
          <mxGeometry relative="1" as="geometry" />
        </mxCell>
        <mxCell id="VGD8lqs-76YzBRC_-Ija-167" value="LOGOUT" style="verticalLabelPosition=bottom;verticalAlign=top;html=1;shape=mxgraph.flowchart.on-page_reference;" vertex="1" parent="1">
          <mxGeometry x="930" y="2930" width="60" height="60" as="geometry" />
        </mxCell>
        <mxCell id="VGD8lqs-76YzBRC_-Ija-169" value="COFFEE SHOP STAFF DASHBOARD" style="text;strokeColor=#82b366;align=center;fillColor=#d5e8d4;html=1;verticalAlign=middle;whiteSpace=wrap;rounded=1;fillStyle=solid;glass=1;shadow=1;fontStyle=3;fontSize=18;" vertex="1" parent="1">
          <mxGeometry x="1800" y="1540" width="323.75" height="40" as="geometry" />
        </mxCell>
      </root>
    </mxGraphModel>
  </diagram>
</mxfile>
